NotoSerifDisplay-Light.ufo
<glyph name="exclamdown" format="2">
  <advance width="271"/>
  <unicode hex="00A1"/>
  <outline>
    <contour>
      <point x="110" y="-177" type="line"/>
      <point x="138" y="-177" type="line"/>
      <point x="131" y="370" type="line"/>
      <point x="116" y="370" type="line"/>
    </contour>
    <contour>
      <point x="125" y="464" type="curve" smooth="yes"/>
      <point x="135" y="464"/>
      <point x="145" y="472"/>
      <point x="145" y="502" type="curve" smooth="yes"/>
      <point x="145" y="533"/>
      <point x="135" y="542"/>
      <point x="125" y="542" type="curve" smooth="yes"/>
      <point x="114" y="542"/>
      <point x="105" y="533"/>
      <point x="105" y="502" type="curve" smooth="yes"/>
      <point x="105" y="472"/>
      <point x="114" y="464"/>
    </contour>
  </outline>
</glyph>
<glyph name="uni0191" format="2">
  <advance width="650"/>
  <unicode hex="0191"/>
  <anchor x="124" y="-10" name="bottom"/>
  <anchor x="375" y="714" name="top"/>
  <anchor x="625" y="714" name="topright"/>
  <outline>
    <contour>
      <point x="124" y="-10" type="curve" smooth="yes"/>
      <point x="216" y="-10"/>
      <point x="277" y="47"/>
      <point x="277" y="171" type="curve" smooth="yes"/>
      <point x="277" y="366" type="line"/>
      <point x="523" y="366" type="line"/>
      <point x="523" y="376" type="line"/>
      <point x="277" y="376" type="line"/>
      <point x="277" y="704" type="line"/>
      <point x="526" y="704" type="line" smooth="yes"/>
      <point x="582" y="704"/>
      <point x="583" y="684"/>
      <point x="585" y="621" type="curve" smooth="yes"/>
      <point x="587" y="551" type="line"/>
      <point x="597" y="551" type="line"/>
      <point x="592" y="714" type="line"/>
      <point x="150" y="714" type="line"/>
      <point x="150" y="704" type="line"/>
      <point x="192" y="704" type="line" smooth="yes"/>
      <point x="243" y="704"/>
      <point x="249" y="693"/>
      <point x="249" y="616" type="curve" smooth="yes"/>
      <point x="249" y="172" type="line" smooth="yes"/>
      <point x="249" y="54"/>
      <point x="208" y="0"/>
      <point x="124" y="0" type="curve" smooth="yes"/>
      <point x="35" y="0"/>
      <point x="15" y="46"/>
      <point x="15" y="137" type="curve"/>
      <point x="-4" y="137"/>
      <point x="-11" y="123"/>
      <point x="-11" y="95" type="curve" smooth="yes"/>
      <point x="-11" y="50"/>
      <point x="18" y="-10"/>
    </contour>
  </outline>
</glyph>
<glyph name="florin" format="2">
  <advance width="391"/>
  <unicode hex="0192"/>
  <anchor x="88" y="-11" name="bottom"/>
  <anchor x="331" y="772" name="top"/>
  <anchor x="451" y="772" name="topright"/>
  <outline>
    <contour>
      <point x="88" y="-11" type="curve" smooth="yes"/>
      <point x="183" y="-11"/>
      <point x="233" y="52"/>
      <point x="233" y="191" type="curve" smooth="yes"/>
      <point x="233" y="526" type="line"/>
      <point x="377" y="526" type="line"/>
      <point x="377" y="536" type="line"/>
      <point x="233" y="536" type="line"/>
      <point x="233" y="600" type="line" smooth="yes"/>
      <point x="233" y="706"/>
      <point x="276" y="762"/>
      <point x="354" y="762" type="curve" smooth="yes"/>
      <point x="421" y="762"/>
      <point x="437" y="722"/>
      <point x="437" y="658" type="curve"/>
      <point x="447" y="658"/>
      <point x="459" y="667"/>
      <point x="459" y="694" type="curve" smooth="yes"/>
      <point x="459" y="729"/>
      <point x="428" y="772"/>
      <point x="356" y="772" type="curve" smooth="yes"/>
      <point x="261" y="772"/>
      <point x="205" y="709"/>
      <point x="205" y="600" type="curve" smooth="yes"/>
      <point x="205" y="536" type="line"/>
      <point x="110" y="536" type="line"/>
      <point x="110" y="526" type="line"/>
      <point x="205" y="526" type="line"/>
      <point x="205" y="191" type="line" smooth="yes"/>
      <point x="205" y="55"/>
      <point x="168" y="-1"/>
      <point x="90" y="-1" type="curve" smooth="yes"/>
      <point x="25" y="-1"/>
      <point x="9" y="39"/>
      <point x="9" y="103" type="curve"/>
      <point x="-1" y="103"/>
      <point x="-13" y="94"/>
      <point x="-13" y="67" type="curve" smooth="yes"/>
      <point x="-13" y="32"/>
      <point x="18" y="-11"/>
    </contour>
  </outline>
</glyph>
<glyph name="uni023B" format="2">
  <advance width="550"/>
  <unicode hex="023B"/>
  <anchor x="315" y="-80" name="bottom"/>
  <anchor x="315" y="714" name="top"/>
  <anchor x="530" y="714" name="topright"/>
  <outline>
    <contour>
      <point x="172" y="-80" type="line"/>
      <point x="183" y="-80" type="line"/>
      <point x="444" y="760" type="line"/>
      <point x="433" y="760" type="line"/>
    </contour>
    <component base="C"/>
  </outline>
</glyph>
<glyph name="uni023C" format="2">
  <advance width="448"/>
  <unicode hex="023C"/>
  <anchor x="224" y="-207" name="bottom"/>
  <anchor x="224" y="714" name="top"/>
  <anchor x="428" y="536" name="topright"/>
  <outline>
    <contour>
      <point x="152" y="-207" type="line"/>
      <point x="162" y="-207" type="line"/>
      <point x="367" y="714" type="line"/>
      <point x="357" y="714" type="line"/>
    </contour>
    <component base="c"/>
  </outline>
</glyph>
<glyph name="uni0246" format="2">
  <advance width="585"/>
  <unicode hex="0246"/>
  <anchor x="293" y="0" name="bottom"/>
  <anchor x="293" y="714" name="top"/>
  <anchor x="565" y="714" name="topright"/>
  <outline>
    <contour>
      <point x="187" y="-58" type="line"/>
      <point x="198" y="-58" type="line"/>
      <point x="453" y="760" type="line"/>
      <point x="442" y="760" type="line"/>
    </contour>
    <component base="E"/>
  </outline>
</glyph>
<glyph name="uni0247" format="2">
  <advance width="489"/>
  <unicode hex="0247"/>
  <anchor x="245" y="-207" name="bottom"/>
  <anchor x="245" y="714" name="top"/>
  <anchor x="469" y="536" name="topright"/>
  <outline>
    <contour>
      <point x="133" y="-207" type="line"/>
      <point x="143" y="-207" type="line"/>
      <point x="351" y="714" type="line"/>
      <point x="341" y="714" type="line"/>
    </contour>
    <component base="e"/>
  </outline>
</glyph>
<glyph name="uni0248" format="2">
  <advance width="343"/>
  <unicode hex="0248"/>
  <anchor x="92" y="-240" name="bottom"/>
  <anchor x="172" y="714" name="top"/>
  <anchor x="323" y="714" name="topright"/>
  <outline>
    <contour>
      <point x="60" y="373" type="line"/>
      <point x="307" y="373" type="line"/>
      <point x="307" y="383" type="line"/>
      <point x="60" y="383" type="line"/>
    </contour>
    <component base="J"/>
  </outline>
</glyph>
<glyph name="uni0249" format="2">
  <advance width="284"/>
  <unicode hex="0249"/>
  <anchor x="92" y="-240" name="bottom"/>
  <anchor x="152" y="738" name="top"/>
  <anchor x="234" y="738" name="topright"/>
  <outline>
    <contour>
      <point x="54" y="283" type="line"/>
      <point x="258" y="283" type="line"/>
      <point x="258" y="293" type="line"/>
      <point x="54" y="293" type="line"/>
    </contour>
    <component base="j"/>
  </outline>
</glyph>
<glyph name="uni024D" format="2">
  <advance width="405"/>
  <unicode hex="024D"/>
  <anchor x="203" y="0" name="bottom"/>
  <anchor x="203" y="536" name="top"/>
  <anchor x="415" y="536" name="topright"/>
  <outline>
    <contour>
      <point x="42" y="283" type="line"/>
      <point x="313" y="283" type="line"/>
      <point x="313" y="293" type="line"/>
      <point x="42" y="293" type="line"/>
    </contour>
    <component base="r"/>
  </outline>
</glyph>
<glyph name="uni0289" format="2">
  <advance width="597"/>
  <unicode hex="0289"/>
  <anchor x="299" y="0" name="bottom"/>
  <anchor x="299" y="536" name="top"/>
  <anchor x="517" y="536" name="topright"/>
  <outline>
    <contour>
      <point x="30" y="283" type="line"/>
      <point x="561" y="283" type="line"/>
      <point x="561" y="293" type="line"/>
      <point x="30" y="293" type="line"/>
    </contour>
    <component base="u"/>
  </outline>
</glyph>
<glyph name="uni02A1" format="2">
  <advance width="445"/>
  <unicode hex="02A1"/>
  <anchor x="183" y="0" name="bottom"/>
  <anchor x="223" y="760" name="top"/>
  <anchor x="448" y="760" name="topright"/>
  <outline>
    <contour>
      <point x="72" y="205" type="line"/>
      <point x="306" y="205" type="line"/>
      <point x="306" y="215" type="line"/>
      <point x="72" y="215" type="line"/>
    </contour>
    <component base="uni0294"/>
  </outline>
</glyph>
<glyph name="uni0375" format="2">
  <advance width="157"/>
  <unicode hex="0375"/>
  <outline>
    <contour>
      <point x="44" y="-240" type="line"/>
      <point x="72" y="-240" type="line"/>
      <point x="80" y="-205"/>
      <point x="95" y="-153"/>
      <point x="113" y="-101" type="curve"/>
      <point x="113" y="-88" type="line"/>
      <point x="106" y="-88" type="line"/>
      <point x="81" y="-136"/>
      <point x="58" y="-195"/>
      <point x="44" y="-232" type="curve"/>
    </contour>
  </outline>
</glyph>
<glyph name="tonos" format="2">
  <advance width="577"/>
  <unicode hex="0384"/>
  <anchor x="319" y="536" name="_top"/>
  <outline>
    <contour>
      <point x="278" y="606" type="line"/>
      <point x="282" y="606" type="line"/>
      <point x="315" y="681"/>
      <point x="324" y="702"/>
      <point x="359" y="784" type="curve"/>
      <point x="359" y="796" type="line"/>
      <point x="329" y="796" type="line"/>
      <point x="309" y="723"/>
      <point x="298" y="678"/>
      <point x="278" y="614" type="curve"/>
    </contour>
  </outline>
</glyph>
<glyph name="uni048A" format="2">
  <advance width="783"/>
  <unicode hex="048A"/>
  <anchor x="392" y="0" name="bottom"/>
  <anchor x="392" y="880" name="top"/>
  <outline>
    <contour>
      <point x="636" y="-210" type="line"/>
      <point x="662" y="-210" type="line"/>
      <point x="731" y="0" type="line"/>
      <point x="731" y="10" type="line"/>
      <point x="721" y="10" type="line"/>
      <point x="721" y="0" type="line"/>
    </contour>
    <component base="afii10026"/>
    <component base="cyrillicbreve" xOffset="109" yOffset="165"/>
  </outline>
</glyph>
<glyph name="uni048B" format="2">
  <advance width="688"/>
  <unicode hex="048B"/>
  <anchor x="344" y="0" name="bottom"/>
  <anchor x="344" y="715" name="top"/>
  <outline>
    <contour>
      <point x="562" y="-210" type="line"/>
      <point x="588" y="-210" type="line"/>
      <point x="657" y="0" type="line"/>
      <point x="657" y="10" type="line"/>
      <point x="647" y="10" type="line"/>
      <point x="647" y="0" type="line"/>
    </contour>
    <component base="afii10074"/>
    <component base="cyrillicbreve" xOffset="59"/>
  </outline>
</glyph>
<glyph name="uni04B0" format="2">
  <advance width="539"/>
  <unicode hex="04B0"/>
  <anchor x="264" y="0" name="bottom"/>
  <anchor x="264" y="714" name="top"/>
  <anchor x="525" y="714" name="topright"/>
  <outline>
    <contour>
      <point x="120" y="231" type="line"/>
      <point x="423" y="231" type="line"/>
      <point x="423" y="241" type="line"/>
      <point x="120" y="241" type="line"/>
    </contour>
    <component base="Y"/>
  </outline>
</glyph>
<glyph name="uni04B1" format="2">
  <advance width="545"/>
  <unicode hex="04B1"/>
  <anchor x="273" y="-240" name="bottom"/>
  <anchor x="273" y="536" name="top"/>
  <outline>
    <contour>
      <point x="139" y="-7" type="line"/>
      <point x="412" y="-7" type="line"/>
      <point x="412" y="3" type="line"/>
      <point x="139" y="3" type="line"/>
    </contour>
    <component base="uni04AF"/>
  </outline>
</glyph>
<glyph name="uni04B8" format="2">
  <advance width="728"/>
  <unicode hex="04B8"/>
  <anchor x="364" y="0" name="bottom"/>
  <anchor x="364" y="714" name="top"/>
  <outline>
    <contour>
      <point x="343" y="144" type="line"/>
      <point x="353" y="144" type="line"/>
      <point x="353" y="456" type="line"/>
      <point x="343" y="456" type="line"/>
    </contour>
    <component base="afii10041"/>
  </outline>
</glyph>
<glyph name="uni04C5" format="2">
  <advance width="672"/>
  <unicode hex="04C5"/>
  <anchor x="322" y="0" name="bottom"/>
  <anchor x="332" y="714" name="top"/>
  <outline>
    <contour>
      <point x="519" y="-210" type="line"/>
      <point x="545" y="-210" type="line"/>
      <point x="614" y="0" type="line"/>
      <point x="614" y="10" type="line"/>
      <point x="604" y="10" type="line"/>
      <point x="604" y="0" type="line"/>
    </contour>
    <component base="afii10029"/>
  </outline>
</glyph>
<glyph name="uni04C6" format="2">
  <advance width="588"/>
  <unicode hex="04C6"/>
  <anchor x="284" y="0" name="bottom"/>
  <anchor x="294" y="536" name="top"/>
  <outline>
    <contour>
      <point x="462" y="-210" type="line"/>
      <point x="488" y="-210" type="line"/>
      <point x="557" y="0" type="line"/>
      <point x="557" y="10" type="line"/>
      <point x="547" y="10" type="line"/>
      <point x="547" y="0" type="line"/>
    </contour>
    <component base="afii10077"/>
  </outline>
</glyph>
<glyph name="uni04C9" format="2">
  <advance width="761"/>
  <unicode hex="04C9"/>
  <anchor x="381" y="0" name="bottom"/>
  <anchor x="381" y="714" name="top"/>
  <anchor x="381" y="357" name="center"/>
  <anchor x="741" y="714" name="topright"/>
  <outline>
    <contour>
      <point x="616" y="-210" type="line"/>
      <point x="642" y="-210" type="line"/>
      <point x="711" y="0" type="line"/>
      <point x="711" y="10" type="line"/>
      <point x="701" y="10" type="line"/>
      <point x="701" y="0" type="line"/>
    </contour>
    <component base="H"/>
  </outline>
</glyph>
<glyph name="uni04CE" format="2">
  <advance width="699"/>
  <unicode hex="04CE"/>
  <anchor x="335" y="0" name="bottom"/>
  <anchor x="335" y="536" name="top"/>
  <outline>
    <contour>
      <point x="542" y="-210" type="line"/>
      <point x="568" y="-210" type="line"/>
      <point x="637" y="0" type="line"/>
      <point x="637" y="10" type="line"/>
      <point x="627" y="10" type="line"/>
      <point x="627" y="0" type="line"/>
    </contour>
    <component base="afii10078"/>
  </outline>
</glyph>
<glyph name="uni04FF" format="2">
  <advance width="492"/>
  <unicode hex="04FF"/>
  <anchor x="246" y="0" name="bottom"/>
  <anchor x="246" y="536" name="top"/>
  <anchor x="472" y="536" name="topright"/>
  <outline>
    <contour>
      <point x="84" y="291" type="line"/>
      <point x="405" y="291" type="line"/>
      <point x="405" y="301" type="line"/>
      <point x="84" y="301" type="line"/>
    </contour>
    <component base="x"/>
  </outline>
</glyph>
<glyph name="uni051E" format="2">
  <advance width="658"/>
  <unicode hex="051E"/>
  <anchor x="329" y="0" name="bottom"/>
  <anchor x="329" y="714" name="top"/>
  <outline>
    <contour>
      <point x="478" y="443" type="line"/>
      <point x="483" y="451" type="line"/>
      <point x="256" y="603" type="line"/>
      <point x="251" y="593" type="line"/>
    </contour>
    <component base="afii10028"/>
  </outline>
</glyph>
<glyph name="uni051F" format="2">
  <advance width="549"/>
  <unicode hex="051F"/>
  <anchor x="275" y="0" name="bottom"/>
  <anchor x="275" y="536" name="top"/>
  <outline>
    <contour>
      <point x="447" y="324" type="line"/>
      <point x="452" y="333" type="line"/>
      <point x="256" y="459" type="line"/>
      <point x="250" y="450" type="line"/>
    </contour>
    <component base="afii10076"/>
  </outline>
</glyph>
<glyph name="uni052D" format="2">
  <advance width="598"/>
  <unicode hex="052D"/>
  <anchor x="299" y="-210" name="bottom"/>
  <anchor x="299" y="536" name="top"/>
  <outline>
    <contour>
      <point x="13" y="-210" type="line"/>
      <point x="23" y="-210" type="line"/>
      <point x="30" y="-29" type="line" smooth="yes"/>
      <point x="31" y="-2"/>
      <point x="40" y="0"/>
      <point x="70" y="0" type="curve" smooth="yes"/>
      <point x="505" y="0" type="line" smooth="yes"/>
      <point x="529" y="0"/>
      <point x="535" y="-4"/>
      <point x="536" y="-31" type="curve" smooth="yes"/>
      <point x="542" y="-210" type="line"/>
      <point x="552" y="-210" type="line"/>
      <point x="552" y="10" type="line"/>
      <point x="506" y="10" type="line" smooth="yes"/>
      <point x="460" y="10"/>
      <point x="460" y="16"/>
      <point x="460" y="94" type="curve" smooth="yes"/>
      <point x="460" y="452" type="line" smooth="yes"/>
      <point x="460" y="521"/>
      <point x="463" y="526"/>
      <point x="523" y="526" type="curve" smooth="yes"/>
      <point x="569" y="526" type="line"/>
      <point x="569" y="536" type="line"/>
      <point x="436" y="536" type="line"/>
      <point x="219" y="202" type="line"/>
      <point x="169" y="211"/>
      <point x="144" y="248"/>
      <point x="144" y="316" type="curve" smooth="yes"/>
      <point x="144" y="452" type="line" smooth="yes"/>
      <point x="144" y="521"/>
      <point x="148" y="526"/>
      <point x="220" y="526" type="curve" smooth="yes"/>
      <point x="243" y="526" type="line"/>
      <point x="243" y="536" type="line"/>
      <point x="9" y="536" type="line"/>
      <point x="9" y="526" type="line"/>
      <point x="39" y="526" type="line" smooth="yes"/>
      <point x="111" y="526"/>
      <point x="116" y="521"/>
      <point x="116" y="452" type="curve" smooth="yes"/>
      <point x="116" y="312" type="line" smooth="yes"/>
      <point x="116" y="246"/>
      <point x="150" y="203"/>
      <point x="213" y="193" type="curve"/>
      <point x="94" y="10" type="line"/>
      <point x="13" y="10" type="line"/>
    </contour>
    <contour>
      <point x="106" y="10" type="line"/>
      <point x="224" y="192" type="line"/>
      <point x="239" y="191"/>
      <point x="245" y="191"/>
      <point x="265" y="191" type="curve" smooth="yes"/>
      <point x="318" y="191"/>
      <point x="376" y="211"/>
      <point x="432" y="247" type="curve"/>
      <point x="432" y="10" type="line"/>
    </contour>
    <contour>
      <point x="265" y="200" type="curve" smooth="yes"/>
      <point x="255" y="200"/>
      <point x="242" y="200"/>
      <point x="230" y="201" type="curve"/>
      <point x="432" y="511" type="line"/>
      <point x="432" y="258" type="line"/>
      <point x="371" y="217"/>
      <point x="313" y="200"/>
    </contour>
  </outline>
</glyph>
<glyph name="uni1AB9" format="2">
  <unicode hex="1AB9"/>
  <anchor x="-397" y="64" name="_bottom"/>
  <anchor x="-397" y="-240" name="bottom"/>
  <outline>
    <contour>
      <point x="-438" y="-239" type="line"/>
      <point x="-338" y="27" type="line"/>
      <point x="-356" y="33" type="line"/>
      <point x="-456" y="-232" type="line"/>
    </contour>
  </outline>
</glyph>
<glyph name="uni1ABA" format="2">
  <unicode hex="1ABA"/>
  <anchor x="-420" y="64" name="_bottom"/>
  <anchor x="-420" y="-274" name="bottom"/>
  <outline>
    <contour>
      <point x="-438" y="-240" type="line"/>
      <point x="-338" y="26" type="line"/>
      <point x="-356" y="34" type="line"/>
      <point x="-456" y="-231" type="line"/>
    </contour>
    <contour>
      <point x="-446" y="-274" type="curve" smooth="yes"/>
      <point x="-422" y="-274"/>
      <point x="-403" y="-256"/>
      <point x="-403" y="-229" type="curve" smooth="yes"/>
      <point x="-403" y="-200"/>
      <point x="-422" y="-182"/>
      <point x="-446" y="-182" type="curve" smooth="yes"/>
      <point x="-470" y="-182"/>
      <point x="-489" y="-200"/>
      <point x="-489" y="-229" type="curve" smooth="yes"/>
      <point x="-489" y="-256"/>
      <point x="-470" y="-274"/>
    </contour>
  </outline>
</glyph>
<glyph name="uni1ABF" format="2">
  <unicode hex="1ABF"/>
  <anchor x="0" y="0" name="_bottom"/>
  <outline>
    <contour>
      <point x="-151" y="-89" type="curve" smooth="yes"/>
      <point x="-91" y="-278" type="line"/>
      <point x="-82" y="-278" type="line"/>
      <point x="-4" y="-74" type="line"/>
      <point x="76" y="-278" type="line"/>
      <point x="85" y="-278" type="line"/>
      <point x="152" y="-87" type="line" smooth="yes"/>
      <point x="158" y="-70"/>
      <point x="160" y="-68"/>
      <point x="178" y="-68" type="curve" smooth="yes"/>
      <point x="187" y="-68" type="line"/>
      <point x="187" y="-64" type="line"/>
      <point x="114" y="-64" type="line"/>
      <point x="114" y="-68" type="line"/>
      <point x="132" y="-68" type="line" smooth="yes"/>
      <point x="148" y="-68"/>
      <point x="149" y="-70"/>
      <point x="149" y="-76" type="curve" smooth="yes"/>
      <point x="149" y="-82"/>
      <point x="146" y="-92"/>
      <point x="142" y="-103" type="curve" smooth="yes"/>
      <point x="109" y="-196" type="line" smooth="yes"/>
      <point x="98" y="-228"/>
      <point x="88" y="-256"/>
      <point x="84" y="-269" type="curve"/>
      <point x="83" y="-269" type="line"/>
      <point x="78" y="-254"/>
      <point x="60" y="-208"/>
      <point x="53" y="-189" type="curve" smooth="yes"/>
      <point x="4" y="-64" type="line"/>
      <point x="-5" y="-64" type="line"/>
      <point x="-56" y="-196" type="line" smooth="yes"/>
      <point x="-64" y="-215"/>
      <point x="-79" y="-254"/>
      <point x="-83" y="-265" type="curve"/>
      <point x="-84" y="-265" type="line"/>
      <point x="-87" y="-253"/>
      <point x="-98" y="-217"/>
      <point x="-104" y="-198" type="curve" smooth="yes"/>
      <point x="-133" y="-104" type="line" smooth="yes"/>
      <point x="-136" y="-96"/>
      <point x="-141" y="-80"/>
      <point x="-141" y="-76" type="curve" smooth="yes"/>
      <point x="-141" y="-70"/>
      <point x="-139" y="-68"/>
      <point x="-124" y="-68" type="curve" smooth="yes"/>
      <point x="-110" y="-68" type="line"/>
      <point x="-110" y="-64" type="line"/>
      <point x="-187" y="-64" type="line"/>
      <point x="-187" y="-68" type="line"/>
      <point x="-178" y="-68" type="line" smooth="yes"/>
      <point x="-159" y="-68"/>
      <point x="-157" y="-70"/>
    </contour>
  </outline>
</glyph>
<glyph name="uni1AC0" format="2">
  <unicode hex="1AC0"/>
  <anchor x="0" y="0" name="_bottom"/>
  <outline>
    <contour>
      <point x="151" y="-253" type="curve" smooth="yes"/>
      <point x="91" y="-64" type="line"/>
      <point x="82" y="-64" type="line"/>
      <point x="4" y="-268" type="line"/>
      <point x="-76" y="-64" type="line"/>
      <point x="-85" y="-64" type="line"/>
      <point x="-152" y="-255" type="line" smooth="yes"/>
      <point x="-158" y="-272"/>
      <point x="-160" y="-274"/>
      <point x="-178" y="-274" type="curve" smooth="yes"/>
      <point x="-187" y="-274" type="line"/>
      <point x="-187" y="-278" type="line"/>
      <point x="-114" y="-278" type="line"/>
      <point x="-114" y="-274" type="line"/>
      <point x="-132" y="-274" type="line" smooth="yes"/>
      <point x="-148" y="-274"/>
      <point x="-149" y="-272"/>
      <point x="-149" y="-266" type="curve" smooth="yes"/>
      <point x="-149" y="-260"/>
      <point x="-146" y="-250"/>
      <point x="-142" y="-239" type="curve" smooth="yes"/>
      <point x="-109" y="-146" type="line" smooth="yes"/>
      <point x="-98" y="-114"/>
      <point x="-88" y="-86"/>
      <point x="-84" y="-73" type="curve"/>
      <point x="-83" y="-73" type="line"/>
      <point x="-78" y="-88"/>
      <point x="-60" y="-134"/>
      <point x="-53" y="-153" type="curve" smooth="yes"/>
      <point x="-4" y="-278" type="line"/>
      <point x="5" y="-278" type="line"/>
      <point x="56" y="-146" type="line" smooth="yes"/>
      <point x="64" y="-127"/>
      <point x="79" y="-88"/>
      <point x="83" y="-77" type="curve"/>
      <point x="84" y="-77" type="line"/>
      <point x="87" y="-89"/>
      <point x="98" y="-125"/>
      <point x="104" y="-144" type="curve" smooth="yes"/>
      <point x="133" y="-238" type="line" smooth="yes"/>
      <point x="136" y="-246"/>
      <point x="141" y="-262"/>
      <point x="141" y="-266" type="curve" smooth="yes"/>
      <point x="141" y="-272"/>
      <point x="139" y="-274"/>
      <point x="124" y="-274" type="curve" smooth="yes"/>
      <point x="110" y="-274" type="line"/>
      <point x="110" y="-278" type="line"/>
      <point x="187" y="-278" type="line"/>
      <point x="187" y="-274" type="line"/>
      <point x="178" y="-274" type="line" smooth="yes"/>
      <point x="159" y="-274"/>
      <point x="157" y="-272"/>
    </contour>
  </outline>
</glyph>
<glyph name="uni1D24" format="2">
  <advance width="420"/>
  <unicode hex="1D24"/>
  <anchor x="210" y="0" name="bottom"/>
  <anchor x="210" y="536" name="top"/>
  <outline>
    <contour>
      <point x="223" y="-10" type="curve" smooth="yes"/>
      <point x="315" y="-10"/>
      <point x="381" y="39"/>
      <point x="381" y="70" type="curve" smooth="yes"/>
      <point x="381" y="79"/>
      <point x="376" y="87"/>
      <point x="362" y="89" type="curve"/>
      <point x="346" y="33"/>
      <point x="299" y="0"/>
      <point x="222" y="0" type="curve" smooth="yes"/>
      <point x="147" y="0"/>
      <point x="83" y="34"/>
      <point x="83" y="123" type="curve" smooth="yes"/>
      <point x="83" y="179"/>
      <point x="106" y="212"/>
      <point x="228" y="255" type="curve"/>
      <point x="228" y="274" type="line"/>
      <point x="320" y="311"/>
      <point x="365" y="338"/>
      <point x="365" y="425" type="curve" smooth="yes"/>
      <point x="365" y="484"/>
      <point x="321" y="542"/>
      <point x="224" y="542" type="curve" smooth="yes"/>
      <point x="131" y="542"/>
      <point x="90" y="486"/>
      <point x="90" y="446" type="curve" smooth="yes"/>
      <point x="90" y="412"/>
      <point x="109" y="404"/>
      <point x="119" y="404" type="curve"/>
      <point x="119" y="505"/>
      <point x="157" y="532"/>
      <point x="225" y="532" type="curve" smooth="yes"/>
      <point x="286" y="532"/>
      <point x="337" y="502"/>
      <point x="337" y="425" type="curve" smooth="yes"/>
      <point x="337" y="348"/>
      <point x="290" y="327"/>
      <point x="227" y="301" type="curve"/>
      <point x="227" y="281" type="line"/>
      <point x="119" y="242"/>
      <point x="55" y="205"/>
      <point x="55" y="128" type="curve" smooth="yes"/>
      <point x="55" y="34"/>
      <point x="125" y="-10"/>
    </contour>
  </outline>
</glyph>
<glyph name="uni1D2F" format="2">
  <advance width="404"/>
  <unicode hex="1D2F"/>
  <anchor x="202.15" y="287.0" name="bottom"/>
  <anchor x="202.15" y="715.4" name="top"/>
  <anchor x="391.3" y="715.4" name="topright"/>
  <outline>
    <contour>
      <point x="22" y="510" type="line"/>
      <point x="370" y="510" type="line"/>
      <point x="370" y="516" type="line"/>
      <point x="22" y="516" type="line"/>
    </contour>
    <component base="B" xScale="0.65" yScale="0.6" yOffset="287"/>
  </outline>
</glyph>
<glyph name="uni1D6F" format="2">
  <advance width="891"/>
  <unicode hex="1D6F"/>
  <anchor x="446" y="0" name="bottom"/>
  <anchor x="446" y="536" name="top"/>
  <anchor x="831" y="536" name="topright"/>
  <outline>
    <contour>
      <point x="5" y="224" type="curve"/>
      <point x="15" y="224" type="line"/>
      <point x="21" y="257"/>
      <point x="41" y="309"/>
      <point x="141" y="309" type="curve" smooth="yes"/>
      <point x="314" y="309"/>
      <point x="554" y="226"/>
      <point x="768" y="226" type="curve" smooth="yes"/>
      <point x="869" y="226"/>
      <point x="903" y="290"/>
      <point x="909" y="337" type="curve"/>
      <point x="899" y="337" type="line"/>
      <point x="891" y="304"/>
      <point x="873" y="251"/>
      <point x="768" y="251" type="curve" smooth="yes"/>
      <point x="554" y="251"/>
      <point x="314" y="334"/>
      <point x="141" y="334" type="curve" smooth="yes"/>
      <point x="36" y="334"/>
      <point x="11" y="269"/>
    </contour>
    <component base="m"/>
  </outline>
</glyph>
<glyph name="uni1D70" format="2">
  <advance width="617"/>
  <unicode hex="1D70"/>
  <anchor x="309" y="0" name="bottom"/>
  <anchor x="309" y="536" name="top"/>
  <anchor x="557" y="536" name="topright"/>
  <outline>
    <contour>
      <point x="5" y="221" type="curve"/>
      <point x="15" y="221" type="line"/>
      <point x="21" y="254"/>
      <point x="22" y="305"/>
      <point x="123" y="305" type="curve" smooth="yes"/>
      <point x="261" y="305"/>
      <point x="340" y="224"/>
      <point x="506" y="224" type="curve" smooth="yes"/>
      <point x="603" y="224"/>
      <point x="618" y="287"/>
      <point x="624" y="334" type="curve"/>
      <point x="614" y="334" type="line"/>
      <point x="606" y="301"/>
      <point x="603" y="249"/>
      <point x="506" y="249" type="curve" smooth="yes"/>
      <point x="340" y="249"/>
      <point x="261" y="330"/>
      <point x="123" y="330" type="curve" smooth="yes"/>
      <point x="22" y="330"/>
      <point x="11" y="266"/>
    </contour>
    <component base="n"/>
  </outline>
</glyph>
<glyph name="uni1D76" format="2">
  <advance width="489"/>
  <unicode hex="1D76"/>
  <anchor x="251" y="0" name="bottom"/>
  <anchor x="251" y="536" name="top"/>
  <anchor x="445" y="536" name="topright"/>
  <outline>
    <contour>
      <point x="91" y="224" type="curve"/>
      <point x="101" y="224" type="line"/>
      <point x="105" y="251"/>
      <point x="113" y="282"/>
      <point x="165" y="282" type="curve" smooth="yes"/>
      <point x="218" y="282"/>
      <point x="273" y="236"/>
      <point x="335" y="236" type="curve" smooth="yes"/>
      <point x="388" y="236"/>
      <point x="403" y="276"/>
      <point x="407" y="315" type="curve"/>
      <point x="397" y="315" type="line"/>
      <point x="393" y="288"/>
      <point x="384" y="262"/>
      <point x="335" y="262" type="curve" smooth="yes"/>
      <point x="283" y="262"/>
      <point x="234" y="308"/>
      <point x="167" y="308" type="curve" smooth="yes"/>
      <point x="112" y="308"/>
      <point x="95" y="259"/>
    </contour>
    <component base="z"/>
  </outline>
</glyph>
<glyph name="uni1D7A" format="2">
  <advance width="904"/>
  <unicode hex="1D7A"/>
  <anchor x="183" y="0" name="bottom_1"/>
  <anchor x="616" y="0" name="bottom_2"/>
  <anchor x="163" y="268" name="center_1"/>
  <anchor x="616" y="268" name="center_2"/>
  <anchor x="134" y="657" name="top_1"/>
  <anchor x="616" y="760" name="top_2"/>
  <anchor x="256" y="657" name="topright_1"/>
  <anchor x="803" y="760" name="topright_2"/>
  <outline>
    <contour>
      <point x="13" y="-110" type="line"/>
      <point x="26" y="-110" type="line"/>
      <point x="674" y="760" type="line"/>
      <point x="661" y="760" type="line"/>
    </contour>
    <component base="t" xOffset="20"/>
    <component base="h" xOffset="318"/>
  </outline>
</glyph>
<glyph name="uni1D7B" format="2">
  <advance width="304"/>
  <unicode hex="1D7B"/>
  <anchor x="154" y="0" name="bottom"/>
  <anchor x="154" y="536" name="top"/>
  <outline>
    <contour>
      <point x="36" y="285" type="line"/>
      <point x="271" y="285" type="line"/>
      <point x="271" y="295" type="line"/>
      <point x="36" y="295" type="line"/>
    </contour>
    <component base="uni026A"/>
  </outline>
</glyph>
<glyph name="uni1D7C" format="2">
  <advance width="270"/>
  <unicode hex="1D7C"/>
  <anchor x="135" y="0" name="bottom"/>
  <anchor x="135" y="536" name="top"/>
  <outline>
    <contour>
      <point x="10" y="295" type="line"/>
      <point x="245" y="295" type="line"/>
      <point x="245" y="305" type="line"/>
      <point x="10" y="305" type="line"/>
    </contour>
    <component base="iotaLatin"/>
  </outline>
</glyph>
<glyph name="uni1D80" format="2">
  <advance width="570"/>
  <unicode hex="1D80"/>
  <anchor x="285" y="0" name="bottom"/>
  <anchor x="285" y="760" name="top"/>
  <anchor x="510" y="760" name="topright"/>
  <outline>
    <contour>
      <point x="397" y="-197" type="curve" smooth="yes"/>
      <point x="462" y="-197"/>
      <point x="475" y="-144"/>
      <point x="475" y="-97" type="curve" smooth="yes"/>
      <point x="475" y="100" type="line"/>
      <point x="465" y="100" type="line"/>
      <point x="465" y="-91" type="line" smooth="yes"/>
      <point x="465" y="-153"/>
      <point x="445" y="-172"/>
      <point x="402" y="-172" type="curve" smooth="yes"/>
      <point x="377" y="-172"/>
      <point x="358" y="-159"/>
      <point x="352" y="-141" type="curve"/>
      <point x="342" y="-144"/>
      <point x="337" y="-151"/>
      <point x="337" y="-161" type="curve" smooth="yes"/>
      <point x="337" y="-183"/>
      <point x="364" y="-197"/>
    </contour>
    <component base="b"/>
  </outline>
</glyph>
<glyph name="uni1D8F" format="2">
  <advance width="517"/>
  <unicode hex="1D8F"/>
  <anchor x="254" y="0" name="bottom"/>
  <anchor x="259" y="536" name="top"/>
  <anchor x="497" y="536" name="topright"/>
  <outline>
    <contour>
      <point x="521" y="-197" type="curve" smooth="yes"/>
      <point x="556" y="-197"/>
      <point x="578" y="-183"/>
      <point x="578" y="-160" type="curve" smooth="yes"/>
      <point x="578" y="-151"/>
      <point x="572" y="-144"/>
      <point x="563" y="-141" type="curve"/>
      <point x="557" y="-162"/>
      <point x="544" y="-172"/>
      <point x="521" y="-172" type="curve" smooth="yes"/>
      <point x="483" y="-172"/>
      <point x="466" y="-152"/>
      <point x="466" y="-101" type="curve" smooth="yes"/>
      <point x="466" y="7" type="line"/>
      <point x="456" y="7" type="line"/>
      <point x="456" y="-111" type="line" smooth="yes"/>
      <point x="456" y="-171"/>
      <point x="476" y="-197"/>
    </contour>
    <component base="a"/>
  </outline>
</glyph>
<glyph name="uni1D92" format="2">
  <advance width="489"/>
  <unicode hex="1D92"/>
  <anchor x="255" y="0" name="bottom"/>
  <anchor x="255" y="536" name="top"/>
  <anchor x="469" y="536" name="topright"/>
  <outline>
    <contour>
      <point x="475" y="-197" type="curve" smooth="yes"/>
      <point x="510" y="-197"/>
      <point x="532" y="-183"/>
      <point x="532" y="-160" type="curve" smooth="yes"/>
      <point x="532" y="-151"/>
      <point x="526" y="-144"/>
      <point x="517" y="-141" type="curve"/>
      <point x="511" y="-162"/>
      <point x="498" y="-172"/>
      <point x="475" y="-172" type="curve" smooth="yes"/>
      <point x="437" y="-172"/>
      <point x="420" y="-152"/>
      <point x="420" y="-101" type="curve" smooth="yes"/>
      <point x="420" y="85" type="line"/>
      <point x="410" y="85" type="line"/>
      <point x="410" y="-111" type="line" smooth="yes"/>
      <point x="410" y="-171"/>
      <point x="430" y="-197"/>
    </contour>
    <component base="e"/>
  </outline>
</glyph>
<glyph name="uni1D93" format="2">
  <advance width="449"/>
  <unicode hex="1D93"/>
  <anchor x="225" y="0" name="bottom"/>
  <anchor x="225" y="536" name="top"/>
  <outline>
    <contour>
      <point x="464" y="-197" type="curve" smooth="yes"/>
      <point x="499" y="-197"/>
      <point x="521" y="-183"/>
      <point x="521" y="-160" type="curve" smooth="yes"/>
      <point x="521" y="-151"/>
      <point x="515" y="-144"/>
      <point x="506" y="-141" type="curve"/>
      <point x="500" y="-162"/>
      <point x="487" y="-172"/>
      <point x="464" y="-172" type="curve" smooth="yes"/>
      <point x="426" y="-172"/>
      <point x="409" y="-152"/>
      <point x="409" y="-101" type="curve" smooth="yes"/>
      <point x="409" y="85" type="line"/>
      <point x="399" y="85" type="line"/>
      <point x="399" y="-111" type="line" smooth="yes"/>
      <point x="399" y="-171"/>
      <point x="419" y="-197"/>
    </contour>
    <component base="uni025B"/>
  </outline>
</glyph>
<glyph name="uni1D97" format="2">
  <advance width="448"/>
  <unicode hex="1D97"/>
  <anchor x="219" y="0" name="bottom"/>
  <anchor x="219" y="536" name="top"/>
  <outline>
    <contour>
      <point x="99" y="-197" type="curve" smooth="yes"/>
      <point x="134" y="-197"/>
      <point x="156" y="-183"/>
      <point x="156" y="-160" type="curve" smooth="yes"/>
      <point x="156" y="-151"/>
      <point x="150" y="-144"/>
      <point x="141" y="-141" type="curve"/>
      <point x="135" y="-162"/>
      <point x="122" y="-172"/>
      <point x="99" y="-172" type="curve" smooth="yes"/>
      <point x="61" y="-172"/>
      <point x="44" y="-152"/>
      <point x="44" y="-101" type="curve" smooth="yes"/>
      <point x="44" y="96" type="line"/>
      <point x="34" y="96" type="line"/>
      <point x="34" y="-111" type="line" smooth="yes"/>
      <point x="34" y="-171"/>
      <point x="54" y="-197"/>
    </contour>
    <component base="uni0254" xOffset="-5"/>
  </outline>
</glyph>
<glyph name="uni1FEF" format="2">
  <unicode hex="1FEF"/>
  <anchor x="-116" y="536" name="_top"/>
  <anchor x="-116" y="760" name="top"/>
  <outline>
    <contour>
      <point x="-80" y="626" type="curve"/>
      <point x="-70" y="626" type="line"/>
      <point x="-70" y="630" type="line"/>
      <point x="-89" y="667"/>
      <point x="-110" y="711"/>
      <point x="-132" y="760" type="curve"/>
      <point x="-162" y="760" type="line"/>
      <point x="-162" y="752" type="line"/>
      <point x="-139" y="715"/>
      <point x="-106" y="664"/>
    </contour>
  </outline>
</glyph>
<glyph name="uni1FFD" format="2">
  <advance width="272"/>
  <unicode hex="1FFD"/>
  <anchor x="136" y="536" name="_top"/>
  <anchor x="136" y="760" name="top"/>
  <outline>
    <contour>
      <point x="90" y="626" type="line"/>
      <point x="100" y="626" type="line"/>
      <point x="126" y="664"/>
      <point x="159" y="715"/>
      <point x="182" y="752" type="curve"/>
      <point x="182" y="760" type="line"/>
      <point x="152" y="760" type="line"/>
      <point x="130" y="711"/>
      <point x="109" y="667"/>
      <point x="90" y="630" type="curve"/>
    </contour>
  </outline>
</glyph>
<glyph name="uni1FFE" format="2">
  <advance width="70"/>
  <unicode hex="1FFE"/>
  <anchor x="32" y="536" name="_top"/>
  <anchor x="32" y="724" name="top"/>
  <outline>
    <contour>
      <point x="76" y="549" type="curve"/>
      <point x="76" y="560" type="line"/>
      <point x="33" y="575"/>
      <point x="11" y="599"/>
      <point x="11" y="629" type="curve" smooth="yes"/>
      <point x="11" y="669"/>
      <point x="61" y="650"/>
      <point x="61" y="692" type="curve" smooth="yes"/>
      <point x="61" y="712"/>
      <point x="50" y="724"/>
      <point x="32" y="724" type="curve" smooth="yes"/>
      <point x="7" y="724"/>
      <point x="-9" y="699"/>
      <point x="-9" y="658" type="curve" smooth="yes"/>
      <point x="-9" y="604"/>
      <point x="10" y="574"/>
    </contour>
  </outline>
</glyph>
<glyph name="plussuperior" format="2">
  <advance width="385"/>
  <unicode hex="207A"/>
  <outline>
    <contour>
      <point x="182" y="330" type="line"/>
      <point x="202" y="330" type="line"/>
      <point x="202" y="472" type="line"/>
      <point x="345" y="472" type="line"/>
      <point x="345" y="492" type="line"/>
      <point x="202" y="492" type="line"/>
      <point x="202" y="633" type="line"/>
      <point x="182" y="633" type="line"/>
      <point x="182" y="492" type="line"/>
      <point x="40" y="492" type="line"/>
      <point x="40" y="472" type="line"/>
      <point x="182" y="472" type="line"/>
    </contour>
  </outline>
</glyph>
<glyph name="equalsuperior" format="2">
  <advance width="385"/>
  <unicode hex="207C"/>
  <outline>
    <contour>
      <point x="39" y="545" type="line"/>
      <point x="344" y="545" type="line"/>
      <point x="344" y="565" type="line"/>
      <point x="39" y="565" type="line"/>
    </contour>
    <contour>
      <point x="39" y="394" type="line"/>
      <point x="344" y="394" type="line"/>
      <point x="344" y="414" type="line"/>
      <point x="39" y="414" type="line"/>
    </contour>
  </outline>
</glyph>
<glyph name="parenleftsuperior" format="2">
  <advance width="250"/>
  <unicode hex="207D"/>
  <outline>
    <contour>
      <point x="219" y="196" type="curve"/>
      <point x="219" y="207" type="line"/>
      <point x="84" y="262"/>
      <point x="73" y="355"/>
      <point x="73" y="491" type="curve" smooth="yes"/>
      <point x="73" y="627"/>
      <point x="84" y="731"/>
      <point x="219" y="776" type="curve"/>
      <point x="219" y="788" type="line"/>
      <point x="83" y="737"/>
      <point x="45" y="680"/>
      <point x="45" y="491" type="curve" smooth="yes"/>
      <point x="45" y="302"/>
      <point x="83" y="247"/>
    </contour>
  </outline>
</glyph>
<glyph name="parenrightsuperior" format="2">
  <advance width="250"/>
  <unicode hex="207E"/>
  <outline>
    <contour>
      <point x="31" y="196" type="line"/>
      <point x="167" y="247"/>
      <point x="205" y="302"/>
      <point x="205" y="491" type="curve" smooth="yes"/>
      <point x="205" y="680"/>
      <point x="167" y="737"/>
      <point x="31" y="788" type="curve"/>
      <point x="31" y="776" type="line"/>
      <point x="166" y="731"/>
      <point x="177" y="627"/>
      <point x="177" y="491" type="curve" smooth="yes"/>
      <point x="177" y="355"/>
      <point x="166" y="262"/>
      <point x="31" y="207" type="curve"/>
    </contour>
  </outline>
</glyph>
<glyph name="uni20A9" format="2">
  <advance width="1021"/>
  <unicode hex="20A9"/>
  <outline>
    <contour>
      <point x="306" y="0" type="line"/>
      <point x="319" y="0" type="line"/>
      <point x="397" y="302" type="line"/>
      <point x="588" y="302" type="line"/>
      <point x="667" y="0" type="line"/>
      <point x="677" y="0" type="line"/>
      <point x="770" y="302" type="line"/>
      <point x="961" y="302" type="line"/>
      <point x="961" y="312" type="line"/>
      <point x="773" y="312" type="line"/>
      <point x="807" y="423" type="line"/>
      <point x="961" y="423" type="line"/>
      <point x="961" y="433" type="line"/>
      <point x="810" y="433" type="line"/>
      <point x="878" y="655" type="line" smooth="yes"/>
      <point x="892" y="700"/>
      <point x="898" y="704"/>
      <point x="943" y="704" type="curve" smooth="yes"/>
      <point x="968" y="704" type="line"/>
      <point x="968" y="714" type="line"/>
      <point x="775" y="714" type="line"/>
      <point x="775" y="704" type="line"/>
      <point x="813" y="704" type="line" smooth="yes"/>
      <point x="863" y="704"/>
      <point x="868" y="695"/>
      <point x="868" y="676" type="curve" smooth="yes"/>
      <point x="868" y="662"/>
      <point x="863" y="642"/>
      <point x="852" y="605" type="curve" smooth="yes"/>
      <point x="800" y="433" type="line"/>
      <point x="582" y="433" type="line"/>
      <point x="507" y="714" type="line"/>
      <point x="493" y="714" type="line"/>
      <point x="421" y="433" type="line"/>
      <point x="203" y="433" type="line"/>
      <point x="151" y="605" type="line" smooth="yes"/>
      <point x="140" y="643"/>
      <point x="133" y="663"/>
      <point x="133" y="676" type="curve" smooth="yes"/>
      <point x="133" y="695"/>
      <point x="138" y="704"/>
      <point x="188" y="704" type="curve" smooth="yes"/>
      <point x="232" y="704" type="line"/>
      <point x="232" y="714" type="line"/>
      <point x="21" y="714" type="line"/>
      <point x="21" y="704" type="line"/>
      <point x="40" y="704" type="line" smooth="yes"/>
      <point x="85" y="704"/>
      <point x="92" y="700"/>
      <point x="105" y="656" type="curve" smooth="yes"/>
      <point x="173" y="433" type="line"/>
      <point x="54" y="433" type="line"/>
      <point x="54" y="423" type="line"/>
      <point x="176" y="423" type="line"/>
      <point x="210" y="312" type="line"/>
      <point x="54" y="312" type="line"/>
      <point x="54" y="302" type="line"/>
      <point x="213" y="302" type="line"/>
    </contour>
    <contour>
      <point x="320" y="42" type="line"/>
      <point x="242" y="302" type="line"/>
      <point x="387" y="302" type="line"/>
    </contour>
    <contour>
      <point x="239" y="312" type="line"/>
      <point x="206" y="423" type="line"/>
      <point x="418" y="423" type="line"/>
      <point x="390" y="312" type="line"/>
    </contour>
    <contour>
      <point x="683" y="51" type="line"/>
      <point x="616" y="302" type="line"/>
      <point x="760" y="302" type="line"/>
    </contour>
    <contour>
      <point x="400" y="312" type="line"/>
      <point x="428" y="423" type="line"/>
      <point x="556" y="423" type="line"/>
      <point x="585" y="312" type="line"/>
    </contour>
    <contour>
      <point x="431" y="433" type="line"/>
      <point x="492" y="669" type="line"/>
      <point x="554" y="433" type="line"/>
    </contour>
    <contour>
      <point x="614" y="312" type="line"/>
      <point x="584" y="423" type="line"/>
      <point x="796" y="423" type="line"/>
      <point x="763" y="312" type="line"/>
    </contour>
  </outline>
</glyph>
<glyph name="Euro" format="2">
  <advance width="559"/>
  <unicode hex="20AC"/>
  <outline>
    <contour>
      <point x="337" y="-10" type="curve" smooth="yes"/>
      <point x="415" y="-10"/>
      <point x="470" y="29"/>
      <point x="470" y="51" type="curve" smooth="yes"/>
      <point x="470" y="58"/>
      <point x="466" y="66"/>
      <point x="451" y="71" type="curve"/>
      <point x="438" y="35"/>
      <point x="406" y="0"/>
      <point x="337" y="0" type="curve" smooth="yes"/>
      <point x="211" y="0"/>
      <point x="152" y="94"/>
      <point x="143" y="281" type="curve"/>
      <point x="326" y="281" type="line"/>
      <point x="326" y="291" type="line"/>
      <point x="143" y="291" type="line"/>
      <point x="142" y="325"/>
      <point x="142" y="336"/>
      <point x="142" y="346" type="curve" smooth="yes"/>
      <point x="142" y="356"/>
      <point x="142" y="369"/>
      <point x="143" y="392" type="curve"/>
      <point x="366" y="392" type="line"/>
      <point x="366" y="402" type="line"/>
      <point x="144" y="402" type="line"/>
      <point x="154" y="667"/>
      <point x="246" y="714"/>
      <point x="331" y="714" type="curve" smooth="yes"/>
      <point x="419" y="714"/>
      <point x="437" y="670"/>
      <point x="437" y="592" type="curve"/>
      <point x="458" y="592"/>
      <point x="471" y="608"/>
      <point x="471" y="629" type="curve" smooth="yes"/>
      <point x="471" y="672"/>
      <point x="421" y="724"/>
      <point x="334" y="724" type="curve" smooth="yes"/>
      <point x="222" y="724"/>
      <point x="122" y="652"/>
      <point x="117" y="402" type="curve"/>
      <point x="18" y="402" type="line"/>
      <point x="18" y="392" type="line"/>
      <point x="116" y="392" type="line"/>
      <point x="115" y="369"/>
      <point x="115" y="356"/>
      <point x="115" y="346" type="curve" smooth="yes"/>
      <point x="115" y="336"/>
      <point x="115" y="325"/>
      <point x="116" y="291" type="curve"/>
      <point x="18" y="291" type="line"/>
      <point x="18" y="281" type="line"/>
      <point x="116" y="281" type="line"/>
      <point x="132" y="75"/>
      <point x="198" y="-10"/>
    </contour>
  </outline>
</glyph>
<glyph name="uni20B2" format="2">
  <advance width="644"/>
  <unicode hex="20B2"/>
  <anchor x="372" y="0" name="bottom"/>
  <anchor x="382" y="714" name="top"/>
  <anchor x="624" y="714" name="topright"/>
  <outline>
    <contour>
      <point x="347" y="-77" type="line"/>
      <point x="357" y="-77" type="line"/>
      <point x="357" y="780" type="line"/>
      <point x="347" y="780" type="line"/>
    </contour>
    <component base="G"/>
  </outline>
</glyph>
<glyph name="uni20B4" format="2">
  <advance width="490"/>
  <unicode hex="20B4"/>
  <anchor x="271" y="0" name="bottom"/>
  <anchor x="261" y="714" name="top"/>
  <anchor x="56" y="714" name="topright"/>
  <outline>
    <contour>
      <point x="267" y="-10" type="curve" smooth="yes"/>
      <point x="394" y="-10"/>
      <point x="451" y="59"/>
      <point x="451" y="126" type="curve" smooth="yes"/>
      <point x="451" y="150"/>
      <point x="444" y="166"/>
      <point x="425" y="166" type="curve"/>
      <point x="425" y="51"/>
      <point x="373" y="0"/>
      <point x="267" y="0" type="curve" smooth="yes"/>
      <point x="164" y="0"/>
      <point x="117" y="63"/>
      <point x="117" y="168" type="curve" smooth="yes"/>
      <point x="117" y="249"/>
      <point x="163" y="293"/>
      <point x="277" y="357" type="curve" smooth="yes"/>
      <point x="384" y="417"/>
      <point x="426" y="459"/>
      <point x="426" y="560" type="curve" smooth="yes"/>
      <point x="426" y="651"/>
      <point x="359" y="724"/>
      <point x="254" y="724" type="curve" smooth="yes"/>
      <point x="162" y="724"/>
      <point x="97" y="675"/>
      <point x="97" y="614" type="curve" smooth="yes"/>
      <point x="97" y="589"/>
      <point x="104" y="575"/>
      <point x="123" y="575" type="curve"/>
      <point x="123" y="676"/>
      <point x="168" y="714"/>
      <point x="255" y="714" type="curve" smooth="yes"/>
      <point x="350" y="714"/>
      <point x="398" y="652"/>
      <point x="398" y="555" type="curve" smooth="yes"/>
      <point x="398" y="470"/>
      <point x="351" y="433"/>
      <point x="267" y="384" type="curve" smooth="yes"/>
      <point x="176" y="330"/>
      <point x="89" y="286"/>
      <point x="89" y="169" type="curve" smooth="yes"/>
      <point x="89" y="67"/>
      <point x="149" y="-10"/>
    </contour>
    <contour>
      <point x="30" y="295" type="line"/>
      <point x="514" y="295" type="line"/>
      <point x="514" y="305" type="line"/>
      <point x="30" y="305" type="line"/>
    </contour>
    <contour>
      <point x="30" y="435" type="line"/>
      <point x="514" y="435" type="line"/>
      <point x="514" y="445" type="line"/>
      <point x="30" y="445" type="line"/>
    </contour>
  </outline>
</glyph>
<glyph name="uni2C60" format="2">
  <advance width="613"/>
  <unicode hex="2C60"/>
  <anchor x="307" y="0" name="bottom"/>
  <anchor x="307" y="714" name="top"/>
  <anchor x="292" y="357" name="center"/>
  <anchor x="563" y="714" name="topright"/>
  <outline>
    <contour>
      <point x="30" y="426" type="line"/>
      <point x="319" y="426" type="line"/>
      <point x="319" y="436" type="line"/>
      <point x="30" y="436" type="line"/>
    </contour>
    <contour>
      <point x="30" y="309" type="line"/>
      <point x="319" y="309" type="line"/>
      <point x="319" y="319" type="line"/>
      <point x="30" y="319" type="line"/>
    </contour>
    <component base="L"/>
  </outline>
</glyph>
<glyph name="uni2C62" format="2">
  <advance width="563"/>
  <unicode hex="2C62"/>
  <anchor x="282" y="0" name="bottom"/>
  <anchor x="282" y="714" name="top"/>
  <anchor x="272" y="357" name="center"/>
  <anchor x="543" y="714" name="topright"/>
  <outline>
    <contour>
      <point x="-7" y="330" type="curve"/>
      <point x="3" y="330" type="line"/>
      <point x="7" y="357"/>
      <point x="15" y="388"/>
      <point x="67" y="388" type="curve" smooth="yes"/>
      <point x="120" y="388"/>
      <point x="165" y="333"/>
      <point x="227" y="333" type="curve" smooth="yes"/>
      <point x="280" y="333"/>
      <point x="295" y="373"/>
      <point x="299" y="412" type="curve"/>
      <point x="289" y="412" type="line"/>
      <point x="285" y="385"/>
      <point x="276" y="359"/>
      <point x="227" y="359" type="curve" smooth="yes"/>
      <point x="175" y="359"/>
      <point x="136" y="414"/>
      <point x="69" y="414" type="curve" smooth="yes"/>
      <point x="14" y="414"/>
      <point x="-3" y="365"/>
    </contour>
    <component base="L" xOffset="-20"/>
  </outline>
</glyph>
<glyph name="uni2C63" format="2">
  <advance width="562"/>
  <unicode hex="2C63"/>
  <anchor x="281" y="0" name="bottom"/>
  <anchor x="281" y="714" name="top"/>
  <anchor x="542" y="714" name="topright"/>
  <outline>
    <contour>
      <point x="36" y="491" type="line"/>
      <point x="314" y="491" type="line"/>
      <point x="314" y="501" type="line"/>
      <point x="36" y="501" type="line"/>
    </contour>
    <component base="P"/>
  </outline>
</glyph>
<glyph name="upwardsancora" format="2">
  <advance width="750"/>
  <unicode hex="2E15"/>
  <outline>
    <contour>
      <point x="140" y="71" type="line"/>
      <point x="544" y="475" type="line"/>
      <point x="585" y="431"/>
      <point x="605" y="393"/>
      <point x="605" y="348" type="curve" smooth="yes"/>
      <point x="605" y="325"/>
      <point x="600" y="300"/>
      <point x="589" y="271" type="curve"/>
      <point x="604" y="257" type="line"/>
      <point x="617" y="287"/>
      <point x="624" y="315"/>
      <point x="624" y="343" type="curve" smooth="yes"/>
      <point x="624" y="398"/>
      <point x="598" y="449"/>
      <point x="551" y="496" type="curve" smooth="yes"/>
      <point x="503" y="545"/>
      <point x="455" y="569"/>
      <point x="402" y="569" type="curve" smooth="yes"/>
      <point x="373" y="569"/>
      <point x="344" y="562"/>
      <point x="312" y="549" type="curve"/>
      <point x="326" y="534" type="line"/>
      <point x="353" y="545"/>
      <point x="377" y="550"/>
      <point x="400" y="550" type="curve" smooth="yes"/>
      <point x="447" y="550"/>
      <point x="487" y="529"/>
      <point x="530" y="489" type="curve"/>
      <point x="126" y="85" type="line"/>
    </contour>
  </outline>
</glyph>
<glyph name="uni2E44" format="2">
  <advance width="247"/>
  <unicode hex="2E44"/>
  <outline>
    <contour>
      <point x="48" y="561" type="line"/>
      <point x="207" y="750" type="line"/>
      <point x="176" y="772" type="line"/>
      <point x="40" y="567" type="line"/>
    </contour>
    <contour>
      <point x="48" y="-69" type="line"/>
      <point x="207" y="120" type="line"/>
      <point x="176" y="142" type="line"/>
      <point x="40" y="-63" type="line"/>
    </contour>
  </outline>
</glyph>
<glyph name="uniA642" format="2">
  <advance width="498"/>
  <unicode hex="A642"/>
  <outline>
    <contour>
      <point x="93" y="370" type="line"/>
      <point x="408" y="370" type="line"/>
      <point x="408" y="380" type="line"/>
      <point x="93" y="380" type="line"/>
    </contour>
    <component base="uniA640"/>
  </outline>
</glyph>
<glyph name="uniA643" format="2">
  <advance width="489"/>
  <unicode hex="A643"/>
  <outline>
    <contour>
      <point x="107" y="269" type="line"/>
      <point x="382" y="269" type="line"/>
      <point x="382" y="279" type="line"/>
      <point x="107" y="279" type="line"/>
    </contour>
    <component base="uniA641"/>
  </outline>
</glyph>
<glyph name="uniA651" format="2">
  <advance width="824"/>
  <unicode hex="A651"/>
  <anchor x="301" y="0" name="bottom"/>
  <anchor x="301" y="536" name="top"/>
  <outline>
    <contour>
      <point x="575" y="0" type="line"/>
      <point x="777" y="0" type="line"/>
      <point x="777" y="10" type="line"/>
      <point x="752" y="10" type="line" smooth="yes"/>
      <point x="691" y="10"/>
      <point x="686" y="14"/>
      <point x="686" y="84" type="curve" smooth="yes"/>
      <point x="686" y="452" type="line" smooth="yes"/>
      <point x="686" y="521"/>
      <point x="689" y="526"/>
      <point x="755" y="526" type="curve" smooth="yes"/>
      <point x="777" y="526" type="line"/>
      <point x="777" y="536" type="line"/>
      <point x="575" y="536" type="line"/>
      <point x="575" y="526" type="line"/>
      <point x="604" y="526" type="line" smooth="yes"/>
      <point x="653" y="526"/>
      <point x="658" y="521"/>
      <point x="658" y="452" type="curve" smooth="yes"/>
      <point x="658" y="84" type="line" smooth="yes"/>
      <point x="658" y="14"/>
      <point x="651" y="10"/>
      <point x="600" y="10" type="curve" smooth="yes"/>
      <point x="575" y="10" type="line"/>
    </contour>
    <component base="afii10092"/>
  </outline>
</glyph>
<glyph name="uniA680" format="2">
  <advance width="660"/>
  <unicode hex="A680"/>
  <anchor x="330" y="0" name="bottom"/>
  <anchor x="330" y="714" name="top"/>
  <outline>
    <contour>
      <point x="286" y="710" type="line"/>
      <point x="301" y="710" type="line"/>
      <point x="301" y="839" type="line"/>
      <point x="286" y="839" type="line"/>
    </contour>
    <component base="afii10021"/>
  </outline>
</glyph>
<glyph name="uniA681" format="2">
  <advance width="543"/>
  <unicode hex="A681"/>
  <anchor x="272" y="0" name="bottom"/>
  <anchor x="272" y="536" name="top"/>
  <outline>
    <contour>
      <point x="196" y="534" type="line"/>
      <point x="211" y="534" type="line"/>
      <point x="214" y="659" type="line"/>
      <point x="198" y="659" type="line"/>
    </contour>
    <component base="afii10069"/>
  </outline>
</glyph>
<glyph name="uniA743" format="2">
  <advance width="521"/>
  <unicode hex="A743"/>
  <anchor x="261" y="760" name="top"/>
  <anchor x="261" y="0" name="bottom"/>
  <anchor x="521" y="760" name="topright"/>
  <outline>
    <contour>
      <point x="243" y="115" type="line"/>
      <point x="447" y="264" type="line"/>
      <point x="441" y="272" type="line"/>
      <point x="237" y="123" type="line"/>
    </contour>
    <component base="k"/>
  </outline>
</glyph>
<glyph name="uniA744" format="2">
  <advance width="658"/>
  <unicode hex="A744"/>
  <anchor x="329" y="0" name="bottom"/>
  <anchor x="329" y="714" name="top"/>
  <anchor x="638" y="714" name="topright"/>
  <outline>
    <contour>
      <point x="50" y="567" type="line"/>
      <point x="273" y="567" type="line"/>
      <point x="273" y="577" type="line"/>
      <point x="50" y="577" type="line"/>
    </contour>
    <contour>
      <point x="374" y="141" type="line"/>
      <point x="571" y="289" type="line"/>
      <point x="565" y="296" type="line"/>
      <point x="368" y="149" type="line"/>
    </contour>
    <component base="K"/>
  </outline>
</glyph>
<glyph name="uniA748" format="2">
  <advance width="583"/>
  <unicode hex="A748"/>
  <anchor x="292" y="0" name="bottom"/>
  <anchor x="292" y="357" name="center"/>
  <anchor x="292" y="714" name="top"/>
  <anchor x="563" y="714" name="topright"/>
  <outline>
    <contour>
      <point x="50" y="566" type="line"/>
      <point x="273" y="566" type="line"/>
      <point x="273" y="576" type="line"/>
      <point x="50" y="576" type="line"/>
    </contour>
    <component base="L"/>
  </outline>
</glyph>
<glyph name="uniA749" format="2">
  <advance width="256"/>
  <unicode hex="A749"/>
  <anchor x="128" y="0" name="bottom"/>
  <anchor x="128" y="268" name="center"/>
  <anchor x="128" y="760" name="top"/>
  <anchor x="186" y="760" name="topright"/>
  <outline>
    <contour>
      <point x="17" y="620" type="line"/>
      <point x="231" y="620" type="line"/>
      <point x="231" y="630" type="line"/>
      <point x="17" y="630" type="line"/>
    </contour>
    <component base="l"/>
  </outline>
</glyph>
<glyph name="uniA74B" format="2">
  <advance width="531"/>
  <unicode hex="A74B"/>
  <anchor x="266" y="0" name="bottom"/>
  <anchor x="266" y="268" name="center"/>
  <anchor x="266" y="536" name="top"/>
  <anchor x="501" y="536" name="topright"/>
  <outline>
    <contour>
      <point x="-1" y="268" type="line"/>
      <point x="532" y="268" type="line"/>
      <point x="532" y="278" type="line"/>
      <point x="-1" y="278" type="line"/>
    </contour>
    <component base="o"/>
  </outline>
</glyph>
<glyph name="uniA750" format="2">
  <advance width="562"/>
  <unicode hex="A750"/>
  <anchor x="163" y="0" name="bottom"/>
  <anchor x="281" y="714" name="top"/>
  <anchor x="542" y="714" name="topright"/>
  <outline>
    <contour>
      <point x="50" y="158" type="line"/>
      <point x="283" y="158" type="line"/>
      <point x="283" y="168" type="line"/>
      <point x="50" y="168" type="line"/>
    </contour>
    <component base="P"/>
  </outline>
</glyph>
<glyph name="uniA751" format="2">
  <advance width="574"/>
  <unicode hex="A751"/>
  <anchor x="287" y="-240" name="bottom"/>
  <anchor x="287" y="536" name="top"/>
  <anchor x="544" y="536" name="topright"/>
  <outline>
    <contour>
      <point x="22" y="-111" type="line"/>
      <point x="276" y="-111" type="line"/>
      <point x="276" y="-101" type="line"/>
      <point x="22" y="-101" type="line"/>
    </contour>
    <component base="p"/>
  </outline>
</glyph>
<glyph name="uniA75E" format="2">
  <advance width="645"/>
  <unicode hex="A75E"/>
  <anchor x="323" y="0" name="bottom"/>
  <anchor x="323" y="714" name="top"/>
  <anchor x="645" y="714" name="topright"/>
  <outline>
    <contour>
      <point x="132" y="0" type="line"/>
      <point x="143" y="0" type="line"/>
      <point x="383" y="714" type="line"/>
      <point x="372" y="714" type="line"/>
    </contour>
    <component base="V"/>
  </outline>
</glyph>
<glyph name="uniA75F" format="2">
  <advance width="545"/>
  <unicode hex="A75F"/>
  <anchor x="273" y="0" name="bottom"/>
  <anchor x="273" y="536" name="top"/>
  <anchor x="535" y="536" name="topright"/>
  <outline>
    <contour>
      <point x="105" y="-50" type="line"/>
      <point x="116" y="-50" type="line"/>
      <point x="354" y="596" type="line"/>
      <point x="343" y="596" type="line"/>
    </contour>
    <component base="v"/>
  </outline>
</glyph>
<glyph name="uniA765" format="2">
  <advance width="574"/>
  <unicode hex="A765"/>
  <anchor x="287" y="-240" name="bottom"/>
  <anchor x="287" y="760" name="top"/>
  <outline>
    <contour>
      <point x="29" y="621" type="line"/>
      <point x="275" y="621" type="line"/>
      <point x="275" y="631" type="line"/>
      <point x="29" y="631" type="line"/>
    </contour>
    <component base="thorn"/>
  </outline>
</glyph>
<glyph name="uniA793" format="2">
  <advance width="479"/>
  <unicode hex="A793"/>
  <anchor x="285" y="0" name="bottom"/>
  <anchor x="285" y="536" name="top"/>
  <anchor x="459" y="536" name="topright"/>
  <outline>
    <contour>
      <point x="25" y="270" type="line"/>
      <point x="240" y="270" type="line"/>
      <point x="240" y="280" type="line"/>
      <point x="25" y="280" type="line"/>
    </contour>
    <component base="c" xOffset="31"/>
  </outline>
</glyph>
<glyph name="uniA799" format="2">
  <advance width="321"/>
  <unicode hex="A799"/>
  <anchor x="161" y="0" name="bottom"/>
  <anchor x="261" y="772" name="top"/>
  <anchor x="381" y="772" name="topright"/>
  <outline>
    <contour>
      <point x="37" y="274" type="line"/>
      <point x="265" y="274" type="line"/>
      <point x="265" y="284" type="line"/>
      <point x="37" y="284" type="line"/>
    </contour>
    <component base="f"/>
  </outline>
</glyph>
<glyph name="uniA7A0" format="2">
  <advance width="644"/>
  <unicode hex="A7A0"/>
  <anchor x="372" y="0" name="bottom"/>
  <anchor x="382" y="714" name="top"/>
  <anchor x="624" y="714" name="topright"/>
  <outline>
    <contour>
      <point x="-5" y="246" type="line"/>
      <point x="653" y="394" type="line"/>
      <point x="653" y="404" type="line"/>
      <point x="-5" y="256" type="line"/>
    </contour>
    <component base="G"/>
  </outline>
</glyph>
<glyph name="uniA7A1" format="2">
  <advance width="510"/>
  <unicode hex="A7A1"/>
  <anchor x="255" y="-240" name="bottom"/>
  <anchor x="255" y="536" name="top"/>
  <anchor x="510" y="536" name="topright"/>
  <outline>
    <contour>
      <point x="20" y="318" type="line"/>
      <point x="478" y="406" type="line"/>
      <point x="478" y="416" type="line"/>
      <point x="20" y="328" type="line"/>
    </contour>
    <component base="g"/>
  </outline>
</glyph>
<glyph name="uniA7A3" format="2">
  <advance width="521"/>
  <unicode hex="A7A3"/>
  <anchor x="261" y="760" name="top"/>
  <anchor x="261" y="0" name="bottom"/>
  <anchor x="521" y="760" name="topright"/>
  <outline>
    <contour>
      <point x="22" y="109" type="line"/>
      <point x="480" y="197" type="line"/>
      <point x="480" y="207" type="line"/>
      <point x="22" y="119" type="line"/>
    </contour>
    <component base="k"/>
  </outline>
</glyph>
<glyph name="uniA7A4" format="2">
  <advance width="731"/>
  <unicode hex="A7A4"/>
  <anchor x="366" y="0" name="bottom"/>
  <anchor x="366" y="714" name="top"/>
  <anchor x="711" y="714" name="topright"/>
  <outline>
    <contour>
      <point x="22" y="273" type="line"/>
      <point x="719" y="459" type="line"/>
      <point x="719" y="469" type="line"/>
      <point x="22" y="283" type="line"/>
    </contour>
    <component base="N"/>
  </outline>
</glyph>
<glyph name="uniA7A7" format="2">
  <advance width="405"/>
  <unicode hex="A7A7"/>
  <anchor x="153" y="0" name="bottom"/>
  <anchor x="243" y="536" name="top"/>
  <anchor x="415" y="536" name="topright"/>
  <outline>
    <contour>
      <point x="48" y="208" type="line"/>
      <point x="299" y="260" type="line"/>
      <point x="299" y="270" type="line"/>
      <point x="48" y="218" type="line"/>
    </contour>
    <component base="r"/>
  </outline>
</glyph>
<glyph name="uniA7A8" format="2">
  <advance width="490"/>
  <unicode hex="A7A8"/>
  <anchor x="255" y="0" name="bottom"/>
  <anchor x="265" y="714" name="top"/>
  <anchor x="470" y="714" name="topright"/>
  <outline>
    <contour>
      <point x="72" y="316" type="line"/>
      <point x="460" y="402" type="line"/>
      <point x="460" y="412" type="line"/>
      <point x="72" y="326" type="line"/>
    </contour>
    <component base="S"/>
  </outline>
</glyph>
<glyph name="uniA7A9" format="2">
  <advance width="405"/>
  <unicode hex="A7A9"/>
  <anchor x="203" y="0" name="bottom"/>
  <anchor x="203" y="536" name="top"/>
  <anchor x="345" y="536" name="topright"/>
  <outline>
    <contour>
      <point x="44" y="235" type="line"/>
      <point x="376" y="303" type="line"/>
      <point x="376" y="313" type="line"/>
      <point x="44" y="245" type="line"/>
    </contour>
    <component base="s"/>
  </outline>
</glyph>
<glyph name="uniA7AE" format="2">
  <advance width="513"/>
  <unicode hex="A7AE"/>
  <outline>
    <contour>
      <point x="41" y="0" type="line"/>
      <point x="472" y="0" type="line"/>
      <point x="478" y="146" type="line"/>
      <point x="468" y="146" type="line"/>
      <point x="463" y="71" type="line" smooth="yes"/>
      <point x="460" y="22"/>
      <point x="444" y="15"/>
      <point x="405" y="15" type="curve" smooth="yes"/>
      <point x="271" y="15" type="line"/>
      <point x="271" y="521" type="line"/>
      <point x="403" y="521" type="line" smooth="yes"/>
      <point x="444" y="521"/>
      <point x="459" y="515"/>
      <point x="463" y="463" type="curve" smooth="yes"/>
      <point x="468" y="390" type="line"/>
      <point x="478" y="390" type="line"/>
      <point x="472" y="536" type="line"/>
      <point x="41" y="536" type="line"/>
      <point x="35" y="390" type="line"/>
      <point x="45" y="390" type="line"/>
      <point x="50" y="463" type="line" smooth="yes"/>
      <point x="54" y="516"/>
      <point x="70" y="521"/>
      <point x="109" y="521" type="curve" smooth="yes"/>
      <point x="243" y="521" type="line"/>
      <point x="243" y="15" type="line"/>
      <point x="103" y="15" type="line" smooth="yes"/>
      <point x="71" y="15"/>
      <point x="53" y="21"/>
      <point x="50" y="71" type="curve" smooth="yes"/>
      <point x="45" y="146" type="line"/>
      <point x="35" y="146" type="line"/>
    </contour>
  </outline>
</glyph>
<glyph name="uniA7B8" format="2">
  <advance width="679"/>
  <unicode hex="A7B8"/>
  <anchor x="340" y="0" name="bottom"/>
  <anchor x="340" y="714" name="top"/>
  <anchor x="679" y="714" name="topright"/>
  <outline>
    <contour>
      <point x="101" y="-11" type="line"/>
      <point x="112" y="-11" type="line"/>
      <point x="598" y="726" type="line"/>
      <point x="587" y="726" type="line"/>
    </contour>
    <component base="U"/>
  </outline>
</glyph>
<glyph name="uniA7B9" format="2">
  <advance width="597"/>
  <unicode hex="A7B9"/>
  <anchor x="299" y="0" name="bottom"/>
  <anchor x="299" y="536" name="top"/>
  <anchor x="517" y="536" name="topright"/>
  <outline>
    <contour>
      <point x="101" y="-11" type="line"/>
      <point x="112" y="-11" type="line"/>
      <point x="488" y="543" type="line"/>
      <point x="477" y="543" type="line"/>
    </contour>
    <component base="u"/>
  </outline>
</glyph>
<glyph name="uniA7C4" format="2">
  <advance width="550"/>
  <unicode hex="A7C4"/>
  <anchor x="318" y="0" name="bottom"/>
  <anchor x="315" y="714" name="top"/>
  <anchor x="530" y="714" name="topright"/>
  <outline>
    <contour>
      <point x="510" y="-107" type="curve" smooth="yes"/>
      <point x="510" y="92" type="line"/>
      <point x="499" y="92" type="line"/>
      <point x="499" y="-107" type="line" smooth="yes"/>
      <point x="499" y="-162"/>
      <point x="473" y="-194"/>
      <point x="431" y="-194" type="curve" smooth="yes"/>
      <point x="397" y="-194"/>
      <point x="392" y="-145"/>
      <point x="363" y="-145" type="curve" smooth="yes"/>
      <point x="344" y="-145"/>
      <point x="332" y="-155"/>
      <point x="332" y="-172" type="curve" smooth="yes"/>
      <point x="332" y="-199"/>
      <point x="359" y="-215"/>
      <point x="401" y="-215" type="curve" smooth="yes"/>
      <point x="468" y="-215"/>
      <point x="510" y="-184"/>
    </contour>
    <component base="C"/>
  </outline>
</glyph>
<glyph name="uniA7C5" format="2">
  <advance width="490"/>
  <unicode hex="A7C5"/>
  <anchor x="255" y="0" name="bottom"/>
  <anchor x="265" y="714" name="top"/>
  <anchor x="470" y="714" name="topright"/>
  <outline>
    <contour>
      <point x="75" y="-107" type="line"/>
      <point x="75" y="-184"/>
      <point x="117" y="-215"/>
      <point x="184" y="-215" type="curve" smooth="yes"/>
      <point x="226" y="-215"/>
      <point x="253" y="-199"/>
      <point x="253" y="-172" type="curve" smooth="yes"/>
      <point x="253" y="-155"/>
      <point x="241" y="-145"/>
      <point x="222" y="-145" type="curve" smooth="yes"/>
      <point x="193" y="-145"/>
      <point x="188" y="-194"/>
      <point x="154" y="-194" type="curve" smooth="yes"/>
      <point x="112" y="-194"/>
      <point x="86" y="-162"/>
      <point x="86" y="-107" type="curve" smooth="yes"/>
      <point x="86" y="125" type="line"/>
      <point x="75" y="125" type="line"/>
    </contour>
    <component base="S"/>
  </outline>
</glyph>
<glyph name="uniA7C6" format="2">
  <advance width="498"/>
  <unicode hex="A7C6"/>
  <anchor x="249" y="0" name="bottom"/>
  <anchor x="249" y="714" name="top"/>
  <anchor x="478" y="714" name="topright"/>
  <outline>
    <contour>
      <point x="453" y="-107" type="curve" smooth="yes"/>
      <point x="453" y="5" type="line"/>
      <point x="442" y="5" type="line"/>
      <point x="442" y="-107" type="line" smooth="yes"/>
      <point x="442" y="-162"/>
      <point x="416" y="-194"/>
      <point x="374" y="-194" type="curve" smooth="yes"/>
      <point x="340" y="-194"/>
      <point x="335" y="-145"/>
      <point x="306" y="-145" type="curve" smooth="yes"/>
      <point x="287" y="-145"/>
      <point x="275" y="-155"/>
      <point x="275" y="-172" type="curve" smooth="yes"/>
      <point x="275" y="-199"/>
      <point x="302" y="-215"/>
      <point x="344" y="-215" type="curve" smooth="yes"/>
      <point x="411" y="-215"/>
      <point x="453" y="-184"/>
    </contour>
    <component base="Z"/>
  </outline>
</glyph>
<glyph name="uniA7C7" format="2">
  <advance width="677"/>
  <unicode hex="A7C7"/>
  <anchor x="339" y="0" name="bottom"/>
  <anchor x="339" y="357" name="center"/>
  <anchor x="339" y="714" name="top"/>
  <anchor x="657" y="714" name="topright"/>
  <outline>
    <contour>
      <point x="163" y="363" type="line"/>
      <point x="602" y="363" type="line"/>
      <point x="602" y="373" type="line"/>
      <point x="163" y="373" type="line"/>
    </contour>
    <component base="D"/>
  </outline>
</glyph>
<glyph name="uniA7FF" format="2">
  <advance width="1101"/>
  <unicode hex="A7FF"/>
  <outline>
    <contour>
      <point x="-4" y="0" type="line"/>
      <point x="162" y="0" type="line"/>
      <point x="162" y="10" type="line"/>
      <point x="121" y="10" type="line" smooth="yes"/>
      <point x="86" y="10"/>
      <point x="83" y="17"/>
      <point x="83" y="30" type="curve" smooth="yes"/>
      <point x="83" y="45"/>
      <point x="91" y="70"/>
      <point x="101" y="98" type="curve" smooth="yes"/>
      <point x="187" y="331" type="line" smooth="yes"/>
      <point x="216" y="410"/>
      <point x="242" y="480"/>
      <point x="254" y="513" type="curve"/>
      <point x="256" y="513" type="line"/>
      <point x="271" y="463"/>
      <point x="286" y="413"/>
      <point x="301" y="363" type="curve" smooth="yes"/>
      <point x="408" y="0" type="line"/>
      <point x="426" y="0" type="line"/>
      <point x="607" y="511" type="line"/>
      <point x="792" y="0" type="line"/>
      <point x="813" y="0" type="line"/>
      <point x="968" y="477" type="line" smooth="yes"/>
      <point x="982" y="520"/>
      <point x="985" y="526"/>
      <point x="1028" y="526" type="curve" smooth="yes"/>
      <point x="1048" y="526" type="line"/>
      <point x="1048" y="536" type="line"/>
      <point x="882" y="536" type="line"/>
      <point x="882" y="526" type="line"/>
      <point x="925" y="526" type="line" smooth="yes"/>
      <point x="960" y="526"/>
      <point x="963" y="519"/>
      <point x="963" y="506" type="curve" smooth="yes"/>
      <point x="963" y="491"/>
      <point x="954" y="466"/>
      <point x="945" y="438" type="curve" smooth="yes"/>
      <point x="869" y="205" type="line" smooth="yes"/>
      <point x="843" y="124"/>
      <point x="821" y="56"/>
      <point x="810" y="23" type="curve"/>
      <point x="808" y="23" type="line"/>
      <point x="797" y="61"/>
      <point x="756" y="175"/>
      <point x="738" y="223" type="curve" smooth="yes"/>
      <point x="625" y="536" type="line"/>
      <point x="605" y="536" type="line"/>
      <point x="487" y="206" type="line" smooth="yes"/>
      <point x="470" y="157"/>
      <point x="435" y="61"/>
      <point x="426" y="32" type="curve"/>
      <point x="424" y="32" type="line"/>
      <point x="417" y="62"/>
      <point x="391" y="152"/>
      <point x="377" y="200" type="curve" smooth="yes"/>
      <point x="278" y="536" type="line"/>
      <point x="251" y="536" type="line"/>
      <point x="76" y="59" type="line" smooth="yes"/>
      <point x="60" y="16"/>
      <point x="59" y="10"/>
      <point x="16" y="10" type="curve" smooth="yes"/>
      <point x="-4" y="10" type="line"/>
    </contour>
  </outline>
</glyph>
<glyph name="uniAB3F" format="2">
  <advance width="448"/>
  <unicode hex="AB3F"/>
  <anchor x="190" y="527" name="bottom"/>
  <anchor x="190" y="-9" name="top"/>
  <anchor x="16" y="-9" name="topright"/>
  <outline>
    <contour>
      <point x="14" y="-40" type="line"/>
      <point x="25" y="-40" type="line"/>
      <point x="395" y="576" type="line"/>
      <point x="384" y="576" type="line"/>
    </contour>
    <component base="c" xScale="-1" yScale="-1" xOffset="444" yOffset="527"/>
  </outline>
</glyph>
<glyph name="uniAB41" format="2">
  <advance width="863"/>
  <unicode hex="AB41"/>
  <anchor x="431" y="531" name="bottom"/>
  <anchor x="431" y="-5" name="top"/>
  <outline>
    <contour>
      <point x="421" y="-40" type="line"/>
      <point x="433" y="-40" type="line"/>
      <point x="813" y="576" type="line"/>
      <point x="801" y="576" type="line"/>
    </contour>
    <component base="oe" xScale="-1" yScale="-1" xOffset="863" yOffset="531"/>
  </outline>
</glyph>
<glyph name="uniAB66" format="2">
  <advance width="933"/>
  <unicode hex="AB66"/>
  <anchor x="436" y="0" name="bottom"/>
  <anchor x="436" y="760" name="top"/>
  <outline>
    <contour>
      <point x="785" y="-107" type="line"/>
      <point x="785" y="-184"/>
      <point x="827" y="-215"/>
      <point x="894" y="-215" type="curve" smooth="yes"/>
      <point x="936" y="-215"/>
      <point x="963" y="-199"/>
      <point x="963" y="-175" type="curve" smooth="yes"/>
      <point x="963" y="-157"/>
      <point x="950" y="-145"/>
      <point x="932" y="-145" type="curve" smooth="yes"/>
      <point x="898" y="-145"/>
      <point x="898" y="-194"/>
      <point x="864" y="-194" type="curve" smooth="yes"/>
      <point x="822" y="-194"/>
      <point x="796" y="-162"/>
      <point x="796" y="-107" type="curve" smooth="yes"/>
      <point x="796" y="5" type="line"/>
      <point x="785" y="5" type="line"/>
    </contour>
    <component base="dzlig"/>
  </outline>
</glyph>
<glyph name="uniAB69" format="2">
  <advance width="549"/>
  <unicode hex="AB69"/>
  <anchor x="269" y="287" name="bottom"/>
  <anchor x="-7" y="287" name="bottomleft"/>
  <anchor x="269" y="609" name="top"/>
  <outline>
    <contour>
      <point x="496" y="325" type="curve" smooth="yes"/>
      <point x="408" y="609" type="line"/>
      <point x="397" y="609" type="line"/>
      <point x="284" y="302" type="line"/>
      <point x="169" y="609" type="line"/>
      <point x="155" y="609" type="line"/>
      <point x="58" y="323" type="line" smooth="yes"/>
      <point x="50" y="297"/>
      <point x="47" y="293"/>
      <point x="20" y="293" type="curve" smooth="yes"/>
      <point x="8" y="293" type="line"/>
      <point x="8" y="287" type="line"/>
      <point x="113" y="287" type="line"/>
      <point x="113" y="293" type="line"/>
      <point x="87" y="293" type="line" smooth="yes"/>
      <point x="65" y="293"/>
      <point x="62" y="298"/>
      <point x="62" y="305" type="curve" smooth="yes"/>
      <point x="62" y="314"/>
      <point x="67" y="329"/>
      <point x="73" y="346" type="curve" smooth="yes"/>
      <point x="120" y="486" type="line" smooth="yes"/>
      <point x="137" y="535"/>
      <point x="150" y="575"/>
      <point x="157" y="595" type="curve"/>
      <point x="158" y="595" type="line"/>
      <point x="165" y="572"/>
      <point x="191" y="504"/>
      <point x="202" y="475" type="curve" smooth="yes"/>
      <point x="272" y="287" type="line"/>
      <point x="285" y="287" type="line"/>
      <point x="359" y="485" type="line" smooth="yes"/>
      <point x="370" y="515"/>
      <point x="391" y="572"/>
      <point x="397" y="590" type="curve"/>
      <point x="399" y="590" type="line"/>
      <point x="403" y="572"/>
      <point x="419" y="518"/>
      <point x="427" y="489" type="curve" smooth="yes"/>
      <point x="470" y="348" type="line" smooth="yes"/>
      <point x="474" y="336"/>
      <point x="481" y="312"/>
      <point x="481" y="305" type="curve" smooth="yes"/>
      <point x="481" y="298"/>
      <point x="479" y="293"/>
      <point x="456" y="293" type="curve" smooth="yes"/>
      <point x="437" y="293" type="line"/>
      <point x="437" y="287" type="line"/>
      <point x="547" y="287" type="line"/>
      <point x="547" y="293" type="line"/>
      <point x="534" y="293" type="line" smooth="yes"/>
      <point x="508" y="293"/>
      <point x="505" y="297"/>
    </contour>
  </outline>
</glyph>
<glyph name="uniFE20" format="2">
  <unicode hex="FE20"/>
  <anchor x="-7" y="536" name="_top"/>
  <outline>
    <contour>
      <point x="-386" y="582" type="curve"/>
      <point x="-375" y="582" type="line"/>
      <point x="-314" y="694"/>
      <point x="-160" y="743"/>
      <point x="-7" y="743" type="curve"/>
      <point x="-7" y="763" type="line"/>
      <point x="-9" y="763" type="line" smooth="yes"/>
      <point x="-172" y="763"/>
      <point x="-319" y="708"/>
    </contour>
  </outline>
</glyph>
<glyph name="uniFE21" format="2">
  <unicode hex="FE21"/>
  <anchor x="-1" y="536" name="_top"/>
  <outline>
    <contour>
      <point x="365" y="582" type="curve"/>
      <point x="376" y="582" type="line"/>
      <point x="310" y="709"/>
      <point x="165" y="763"/>
      <point x="0" y="763" type="curve" smooth="yes"/>
      <point x="-1" y="763" type="line"/>
      <point x="-1" y="743" type="line"/>
      <point x="169" y="743"/>
      <point x="308" y="686"/>
    </contour>
  </outline>
</glyph>
<glyph name="uniFE22" format="2">
  <unicode hex="FE22"/>
  <anchor x="2" y="536" name="_top"/>
  <outline>
    <contour>
      <point x="-384" y="607" type="curve"/>
      <point x="-374" y="607" type="line"/>
      <point x="-351" y="655"/>
      <point x="-319" y="684"/>
      <point x="-218" y="684" type="curve" smooth="yes"/>
      <point x="-148" y="684"/>
      <point x="-73" y="665"/>
      <point x="2" y="647" type="curve"/>
      <point x="2" y="669" type="line"/>
      <point x="-70" y="687"/>
      <point x="-145" y="704"/>
      <point x="-219" y="704" type="curve" smooth="yes"/>
      <point x="-290" y="704"/>
      <point x="-360" y="677"/>
    </contour>
  </outline>
</glyph>
<glyph name="uniFE23" format="2">
  <unicode hex="FE23"/>
  <anchor x="-3" y="536" name="_top"/>
  <outline>
    <contour>
      <point x="205" y="614" type="curve" smooth="yes"/>
      <point x="306" y="614"/>
      <point x="369" y="648"/>
      <point x="383" y="711" type="curve"/>
      <point x="373" y="711" type="line"/>
      <point x="363" y="677"/>
      <point x="326" y="634"/>
      <point x="209" y="634" type="curve" smooth="yes"/>
      <point x="144" y="634"/>
      <point x="72" y="653"/>
      <point x="-3" y="671" type="curve"/>
      <point x="-3" y="648" type="line"/>
      <point x="68" y="631"/>
      <point x="138" y="614"/>
    </contour>
  </outline>
</glyph>
<glyph name="combiningmacronlefthalf" format="2">
  <unicode hex="FE24"/>
  <anchor x="0" y="536" name="_top"/>
  <outline>
    <contour>
      <point x="0" y="697" type="line"/>
      <point x="361" y="697" type="line"/>
      <point x="361" y="717" type="line"/>
      <point x="0" y="717" type="line"/>
    </contour>
  </outline>
</glyph>
<glyph name="uniFE27" format="2">
  <unicode hex="FE27"/>
  <anchor x="0" y="0" name="_bottom"/>
  <anchor x="-179" y="536" name="braceleft"/>
  <outline>
    <contour>
      <point x="0" y="-199" type="curve"/>
      <point x="0" y="-179" type="line"/>
      <point x="-149" y="-179"/>
      <point x="-289" y="-130"/>
      <point x="-347" y="-26" type="curve"/>
      <point x="-357" y="-26" type="line"/>
      <point x="-293" y="-146"/>
      <point x="-155" y="-199"/>
    </contour>
  </outline>
</glyph>
<glyph name="uniFE28" format="2">
  <unicode hex="FE28"/>
  <anchor x="0" y="0" name="_bottom"/>
  <anchor x="179" y="536" name="braceleft"/>
  <outline>
    <contour>
      <point x="0" y="-199" type="line"/>
      <point x="157" y="-199"/>
      <point x="299" y="-147"/>
      <point x="359" y="-26" type="curve"/>
      <point x="349" y="-26" type="line"/>
      <point x="294" y="-130"/>
      <point x="150" y="-179"/>
      <point x="0" y="-179" type="curve"/>
    </contour>
  </outline>
</glyph>
<glyph name="uniFE29" format="2">
  <unicode hex="FE29"/>
  <anchor x="-10" y="0" name="_bottom"/>
  <anchor x="-193" y="536" name="braceleft"/>
  <outline>
    <contour>
      <point x="-366" y="-188" type="curve"/>
      <point x="-356" y="-188" type="line"/>
      <point x="-344" y="-163"/>
      <point x="-330" y="-143"/>
      <point x="-305" y="-130" type="curve" smooth="yes"/>
      <point x="-282" y="-118"/>
      <point x="-249" y="-111"/>
      <point x="-200" y="-111" type="curve" smooth="yes"/>
      <point x="-130" y="-111"/>
      <point x="-70" y="-130"/>
      <point x="-10" y="-148" type="curve"/>
      <point x="-10" y="-125" type="line"/>
      <point x="-68" y="-108"/>
      <point x="-128" y="-91"/>
      <point x="-201" y="-91" type="curve" smooth="yes"/>
      <point x="-272" y="-91"/>
      <point x="-342" y="-118"/>
    </contour>
  </outline>
</glyph>
<glyph name="uniFE2A" format="2">
  <unicode hex="FE2A"/>
  <anchor x="0" y="0" name="_bottom"/>
  <anchor x="183" y="536" name="braceleft"/>
  <outline>
    <contour>
      <point x="178" y="-181" type="curve" smooth="yes"/>
      <point x="279" y="-181"/>
      <point x="342" y="-147"/>
      <point x="356" y="-84" type="curve"/>
      <point x="346" y="-84" type="line"/>
      <point x="341" y="-99"/>
      <point x="331" y="-117"/>
      <point x="311" y="-131" type="curve" smooth="yes"/>
      <point x="286" y="-148"/>
      <point x="246" y="-161"/>
      <point x="182" y="-161" type="curve" smooth="yes"/>
      <point x="117" y="-161"/>
      <point x="60" y="-143"/>
      <point x="0" y="-125" type="curve"/>
      <point x="0" y="-148" type="line"/>
      <point x="56" y="-165"/>
      <point x="113" y="-181"/>
    </contour>
  </outline>
</glyph>
<glyph name="uniFE2E" format="2">
  <unicode hex="FE2E"/>
  <anchor x="-97" y="536" name="_top"/>
  <outline>
    <contour>
      <point x="-98" y="587" type="curve" smooth="yes"/>
      <point x="-74" y="587"/>
      <point x="-61" y="605"/>
      <point x="-61" y="636" type="curve"/>
      <point x="133" y="636" type="line"/>
      <point x="133" y="656" type="line"/>
      <point x="-82" y="656" type="line" smooth="yes"/>
      <point x="-113" y="656"/>
      <point x="-130" y="643"/>
      <point x="-130" y="619" type="curve" smooth="yes"/>
      <point x="-130" y="599"/>
      <point x="-118" y="587"/>
    </contour>
  </outline>
</glyph>
<glyph name="uniFE2F" format="2">
  <unicode hex="FE2F"/>
  <anchor x="100" y="536" name="_top"/>
  <outline>
    <contour>
      <point x="-130" y="635" type="line"/>
      <point x="85" y="635" type="line" smooth="yes"/>
      <point x="116" y="635"/>
      <point x="133" y="648"/>
      <point x="133" y="671" type="curve" smooth="yes"/>
      <point x="133" y="691"/>
      <point x="121" y="703"/>
      <point x="101" y="703" type="curve" smooth="yes"/>
      <point x="77" y="703"/>
      <point x="64" y="686"/>
      <point x="64" y="655" type="curve"/>
      <point x="-130" y="655" type="line"/>
    </contour>
  </outline>
</glyph>
<glyph name="aogonek.loclNAV" format="2">
  <advance width="517"/>
  <anchor x="239" y="536" name="top"/>
  <anchor x="254" y="0" name="bottom"/>
  <anchor x="497" y="536" name="topright"/>
  <outline>
    <contour>
      <point x="231" y="-222" type="curve" smooth="yes"/>
      <point x="252" y="-222"/>
      <point x="272" y="-216"/>
      <point x="291" y="-207" type="curve"/>
      <point x="291" y="-196" type="line"/>
      <point x="265" y="-207"/>
      <point x="253" y="-210"/>
      <point x="231" y="-210" type="curve" smooth="yes"/>
      <point x="182" y="-210"/>
      <point x="155" y="-179"/>
      <point x="155" y="-123" type="curve" smooth="yes"/>
      <point x="155" y="-64"/>
      <point x="194" y="-22"/>
      <point x="257" y="0" type="curve"/>
      <point x="232" y="0" type="line"/>
      <point x="169" y="-21"/>
      <point x="129" y="-67"/>
      <point x="129" y="-121" type="curve" smooth="yes"/>
      <point x="129" y="-186"/>
      <point x="166" y="-222"/>
    </contour>
    <component base="a"/>
  </outline>
</glyph>
<glyph name="cyrillic_otmark" format="2">
  <advance width="446"/>
  <outline>
    <contour>
      <point x="37" y="626" type="line"/>
      <point x="42" y="626" type="line"/>
      <point x="60" y="690" type="line"/>
      <point x="203" y="690" type="line"/>
      <point x="220" y="626" type="line"/>
      <point x="225" y="626" type="line"/>
      <point x="243" y="690" type="line"/>
      <point x="386" y="690" type="line"/>
      <point x="403" y="626" type="line"/>
      <point x="408" y="626" type="line"/>
      <point x="426" y="694" type="line"/>
      <point x="426" y="705" type="line"/>
      <point x="20" y="705" type="line"/>
      <point x="20" y="694" type="line"/>
    </contour>
  </outline>
</glyph>
<glyph name="macronacute" format="2">
  <advance width="500"/>
  <outline>
    <contour>
      <point x="224" y="695" type="line"/>
      <point x="226" y="695" type="line"/>
      <point x="268" y="740"/>
      <point x="324" y="801"/>
      <point x="352" y="836" type="curve"/>
      <point x="352" y="846" type="line"/>
      <point x="319" y="846" type="line"/>
      <point x="293" y="801"/>
      <point x="255" y="746"/>
      <point x="224" y="706" type="curve"/>
    </contour>
    <contour>
      <point x="105" y="617" type="line"/>
      <point x="395" y="617" type="line"/>
      <point x="395" y="637" type="line"/>
      <point x="105" y="637" type="line"/>
    </contour>
  </outline>
</glyph>
<glyph name="oslash.sc" format="2">
  <advance width="602"/>
  <anchor x="301" y="0" name="bottom"/>
  <anchor x="301" y="571" name="top"/>
  <anchor x="301" y="286" name="center"/>
  <anchor x="582" y="571" name="topright"/>
  <outline>
    <contour>
      <point x="103" y="-32" type="line"/>
      <point x="115" y="-32" type="line"/>
      <point x="492" y="596" type="line"/>
      <point x="480" y="596" type="line"/>
    </contour>
    <component base="o.sc"/>
  </outline>
</glyph>
<glyph name="overscore.sc" format="2">
  <advance width="459"/>
  <outline>
    <contour>
      <point x="-5" y="763" type="line"/>
      <point x="464" y="763" type="line"/>
      <point x="464" y="783" type="line"/>
      <point x="-5" y="783" type="line"/>
    </contour>
  </outline>
</glyph>
<glyph name="uni02E5_uni02E6_uni02E8" format="2">
  <advance width="542"/>
  <outline>
    <contour>
      <point x="444" y="110" type="line"/>
      <point x="450" y="140" type="line"/>
      <point x="262" y="477" type="line"/>
      <point x="236" y="487" type="line"/>
    </contour>
    <contour>
      <point x="256" y="457" type="line"/>
      <point x="262" y="477" type="line"/>
      <point x="52" y="688" type="line"/>
      <point x="38" y="675" type="line"/>
    </contour>
    <contour>
      <point x="444" y="0" type="line"/>
      <point x="464" y="0" type="line"/>
      <point x="464" y="688" type="line"/>
      <point x="444" y="688" type="line"/>
    </contour>
  </outline>
</glyph>
<glyph name="uni02E6_uni02E5_uni02E9" format="2">
  <advance width="542"/>
  <outline>
    <contour>
      <point x="444" y="0" type="line"/>
      <point x="462" y="6" type="line"/>
      <point x="247" y="688" type="line"/>
      <point x="234" y="665" type="line"/>
    </contour>
    <contour>
      <point x="59" y="456" type="line"/>
      <point x="249" y="662" type="line"/>
      <point x="247" y="688" type="line"/>
      <point x="46" y="470" type="line"/>
    </contour>
    <contour>
      <point x="444" y="0" type="line"/>
      <point x="464" y="0" type="line"/>
      <point x="464" y="688" type="line"/>
      <point x="444" y="688" type="line"/>
    </contour>
  </outline>
</glyph>
<glyph name="uni1FCE0306" format="2">
  <advance width="500"/>
  <anchor x="256" y="536" name="_top"/>
  <anchor x="256" y="907" name="top"/>
  <outline>
    <contour>
      <point x="249" y="606" type="curve" smooth="yes"/>
      <point x="320" y="606"/>
      <point x="378" y="652"/>
      <point x="380" y="717" type="curve"/>
      <point x="370" y="717" type="line"/>
      <point x="360" y="662"/>
      <point x="305" y="637"/>
      <point x="249" y="637" type="curve" smooth="yes"/>
      <point x="192" y="637"/>
      <point x="140" y="662"/>
      <point x="130" y="717" type="curve"/>
      <point x="120" y="717" type="line"/>
      <point x="122" y="652"/>
      <point x="180" y="606"/>
    </contour>
    <contour>
      <point x="173" y="732" type="line"/>
      <point x="242" y="755"/>
      <point x="261" y="783"/>
      <point x="261" y="841" type="curve" smooth="yes"/>
      <point x="261" y="876"/>
      <point x="244" y="907"/>
      <point x="217" y="907" type="curve" smooth="yes"/>
      <point x="199" y="907"/>
      <point x="185" y="894"/>
      <point x="185" y="875" type="curve" smooth="yes"/>
      <point x="185" y="835"/>
      <point x="238" y="847"/>
      <point x="238" y="815" type="curve" smooth="yes"/>
      <point x="238" y="780"/>
      <point x="215" y="753"/>
      <point x="173" y="743" type="curve"/>
    </contour>
    <contour>
      <point x="300" y="747" type="line"/>
      <point x="305" y="747" type="line"/>
      <point x="331" y="786"/>
      <point x="378" y="866"/>
      <point x="387" y="887" type="curve"/>
      <point x="387" y="897" type="line"/>
      <point x="347" y="897" type="line"/>
      <point x="338" y="860"/>
      <point x="318" y="800"/>
      <point x="300" y="760" type="curve"/>
    </contour>
  </outline>
</glyph>
<glyph name="zero.slash" format="2">
  <advance width="559"/>
  <outline>
    <contour>
      <point x="97" y="177" type="line"/>
      <point x="470" y="549" type="line"/>
      <point x="463" y="556" type="line"/>
      <point x="90" y="184" type="line"/>
    </contour>
    <component base="zero"/>
  </outline>
</glyph>
